<?xml version="1.0" encoding="UTF-8" standalone="no"?>
<svg
   xmlns:dc="http://purl.org/dc/elements/1.1/"
   xmlns:cc="http://creativecommons.org/ns#"
   xmlns:rdf="http://www.w3.org/1999/02/22-rdf-syntax-ns#"
   xmlns:svg="http://www.w3.org/2000/svg"
   xmlns="http://www.w3.org/2000/svg"
   viewBox="0 0 1178.5175 198.35182"
   height="198.35182"
   width="1178.5175"
   xml:space="preserve"
   id="svg2"
   version="1.1"><metadata
     id="metadata8"><rdf:RDF><cc:Work
         rdf:about=""><dc:format>image/svg+xml</dc:format><dc:type
           rdf:resource="http://purl.org/dc/dcmitype/StillImage" /><dc:title></dc:title></cc:Work></rdf:RDF></metadata><defs
     id="defs6"><clipPath
       id="clipPath20"
       clipPathUnits="userSpaceOnUse"><path
         id="path18"
         d="M 0,104.811 H 572.103 V 0 H 0 Z" /></clipPath><clipPath
       id="clipPath160"
       clipPathUnits="userSpaceOnUse"><path
         id="path158"
         d="M 0,104.811 H 572.103 V 0 H 0 Z" /></clipPath></defs><g
     transform="matrix(1.3333333,0,0,-1.3333333,207.85673,167.18234)"
     id="g10"><g
       style="fill:#630063;fill-opacity:1"
       transform="matrix(1.949388,0,0,1.949388,-197.61745,-48.423358)"
       id="g4779"><g
         style="fill:#630063;fill-opacity:1"
         id="g14"><g
           style="fill:#630063;fill-opacity:1"
           id="g16"
           clip-path="url(#clipPath20)"><g
             style="fill:#630063;fill-opacity:1"
             id="g22"
             transform="translate(431.7974,53.3027)"><path
               d="m 0,0 c -0.068,-0.011 0.067,-0.102 0.103,-0.097 -0.024,-0.128 -0.18,-0.038 -0.202,0.166 -1.66,0.928 -4.649,2.919 -7.465,-0.149 -0.243,0.064 -0.23,0.146 -0.272,0.368 1.624,1.845 3.948,2.467 5.398,1.714 0.116,0.13 0.152,-0.036 0.254,0.059 0.475,-0.392 1.143,-0.47 1.537,-0.785 C 0.149,1.035 1.099,0.664 1.427,1.017 1.662,1.485 2.49,1.677 2.242,0.826 2.07,0.599 1.933,0.484 1.773,0.21 1.9,0.33 1.885,0.2 1.989,0.238 2.183,0.421 2.429,0.735 2.696,0.892 3.373,2.039 4.745,1.76 4.321,0.621 3.291,-0.271 2.248,-0.54 1.713,-0.936 1.487,-1.172 1.482,-1.051 1.418,-1.082 0.957,-1.528 1.539,-0.566 0,0"
               style="fill:#630063;fill-opacity:1;fill-rule:evenodd;stroke:none"
               id="path24" /></g><g
             style="fill:#630063;fill-opacity:1"
             id="g26"
             transform="translate(426.6548,50.752)"><path
               d="M 0,0 C -0.316,0.308 -0.295,0.752 -1.046,0.989 -1.314,0.906 -1.721,0.704 -1.887,0.523 c 0.33,-0.227 0.82,-0.345 0.844,-0.729 -0.181,-0.45 -0.567,-0.263 -0.853,-0.695 0.089,-0.358 0.529,-0.628 0.328,-1.108 -0.27,-0.02 -0.328,0.131 -0.485,0.209 -0.51,0.026 -0.811,-0.244 -1.206,-0.438 -1.365,-2.256 -0.461,-5.811 1.321,-8.037 0.738,-0.851 1.567,-1.67 2.487,-2.655 0.179,-0.234 0.656,-0.438 0.579,-0.733 -0.315,-0.057 -0.524,0.331 -0.707,0.537 -0.533,0.475 -1.068,1.099 -1.548,1.51 C -4.9,-8.983 -6.824,0.258 -2.175,1.653 L -1.934,1.93 C -1.131,2.081 -0.115,2.438 0.755,1.742 0.838,1.713 0.926,1.665 0.997,1.688 L 1.58,1.19 C 1.84,0.684 1.113,0.704 0.677,0.771 0.338,0.621 0.373,-0.038 0,0"
               style="fill:#630063;fill-opacity:1;fill-rule:evenodd;stroke:none"
               id="path28" /></g><g
             style="fill:#630063;fill-opacity:1"
             id="g30"
             transform="translate(426.4204,44.6436)"><path
               d="M 0,0 C -0.7,-0.887 0.226,-2.151 -0.461,-3.084 -0.04,-4.47 1.488,-5.494 2.383,-6.352 2.85,-6.807 3.257,-7.232 3.771,-7.584 4.343,-7.959 4.863,-8.227 5.32,-8.687 5.06,-9.083 4.576,-8.669 4.349,-8.503 3.135,-7.805 1.93,-6.917 0.921,-6.097 c -0.48,0.316 -0.952,0.562 -1.4,0.937 -0.522,0.555 -1.103,1.511 -1.562,2.481 -0.834,1.787 -0.794,3.826 0.047,4.957 0.283,0.121 0.377,0.433 0.836,0.349 C -1.162,2.489 -1.084,2.458 -0.967,2.476 -0.92,2.235 -0.944,1.928 -0.801,1.716 -0.91,0.955 -1.604,0.323 -1.182,-0.671 -1.002,-0.123 -0.466,0.616 0,0"
               style="fill:#630063;fill-opacity:1;fill-rule:evenodd;stroke:none"
               id="path32" /></g><g
             style="fill:#630063;fill-opacity:1"
             id="g34"
             transform="translate(429.77,56.3633)"><path
               d="M 0,0 C 0.006,0.352 0.12,0.665 0.284,0.978 1.059,1.63 1.972,1.095 2.308,0.451 L 2.347,0.002 c 0.595,-0.714 1.224,-0.734 1.76,-0.549 0.119,0.015 0.239,0.179 0.378,0.24 l 0.85,0.263 C 5.507,0.019 5.673,0.181 5.873,0.263 6.09,0.35 6.324,0.347 6.575,0.471 6.685,0.521 6.8,0.7 6.917,0.736 7.102,0.801 7.586,0.809 7.778,1.157 7.96,1.079 8.087,1.353 8.278,1.263 8.877,1.694 9.469,2.3 10.027,2.977 10.296,2.884 10.345,2.809 10.518,2.576 L 9.526,1.589 C 8.853,1.266 8.396,0.885 7.863,0.554 7.791,0.508 7.742,0.597 7.69,0.578 7.627,0.556 7.554,0.391 7.515,0.373 7.106,0.197 6.575,-0.046 6.375,-0.104 6.322,-0.115 6.293,-0.025 6.223,-0.053 6.126,-0.081 5.936,-0.235 5.798,-0.305 5.535,-0.438 5.369,-0.525 5.137,-0.664 L 5.059,-0.612 C 4.952,-0.681 4.771,-0.845 4.604,-0.84 3.889,-1.455 3.574,-1.307 2.685,-1.358 L 2.411,-1.171 C 2.277,-1.149 2.263,-1.271 2.186,-1.192 1.569,-0.902 0.952,-0.888 0.317,-0.473 0.241,-0.246 0.111,0.04 0,0"
               style="fill:#630063;fill-opacity:1;fill-rule:evenodd;stroke:none"
               id="path36" /></g><g
             style="fill:#630063;fill-opacity:1"
             id="g38"
             transform="translate(457.4702,52.71)"><path
               d="m 0,0 c -0.928,-0.396 -1.861,-1.589 -1.406,-2.987 -0.059,-0.131 -0.206,-0.081 -0.223,-0.293 -0.588,0.041 -0.7,0.097 -1.13,0.39 -0.798,2.92 1.569,4.298 3.032,5.325 L 0.769,2.47 C 0.916,2.413 0.854,2.673 0.938,2.711 1.304,2.738 1.495,2.776 1.647,3.002 2.604,3.038 3.322,3.318 3.914,3.956 3.971,4.016 4.107,4.171 4.145,4.237 4.169,4.276 4.138,4.476 4.151,4.494 4.339,4.735 4.628,4.799 4.791,5.099 4.989,5.465 5.027,6.125 5.222,6.497 L 5.487,6.545 C 5.448,4.921 4.845,4.325 4.535,2.995 4.121,2.689 3.926,2.035 3.414,1.913 3.183,1.48 2.9,1.246 2.652,0.909 2.396,0.517 1.935,-0.092 1.769,-0.705 1.676,-1.064 1.734,-1.515 1.624,-1.897 1.598,-2.02 1.314,-2.138 1.375,-2.394 1.231,-2.524 1.039,-2.536 0.983,-2.861 -0.382,-3.076 -0.559,-1.1 0,0"
               style="fill:#630063;fill-opacity:1;fill-rule:evenodd;stroke:none"
               id="path40" /></g><g
             style="fill:#630063;fill-opacity:1"
             id="g42"
             transform="translate(416.8188,52.8633)"><path
               d="m 0,0 c -0.668,1.108 -0.224,2.926 -0.107,4.432 0.821,2.738 2.468,5.766 5.408,7.899 4.573,3.172 9.826,3.248 13.861,1.564 0.483,-0.46 1.124,-0.902 1.933,-1.311 0.422,-0.414 0.589,-0.851 1.266,-1.396 0.268,-0.811 1.013,-1.549 0.861,-2.316 C 23.181,8.769 23.471,8.601 23.456,8.493 23.119,7.939 23.078,7.808 23.028,7.199 22.374,6.329 21.705,5.516 20.859,5.084 20.597,4.934 20.395,4.989 20.035,4.814 19.742,4.685 19.608,4.601 19.347,4.506 18.569,4.281 17.666,4.223 16.795,4.675 c -0.091,0.179 -0.127,0.417 -0.323,0.532 -0.131,0.763 0.401,1.324 1.136,1.225 0.563,-0.28 0.675,-0.762 1.417,-0.637 0.073,-0.001 0.132,0.074 0.271,0.097 0.108,0.016 0.289,-0.06 0.333,-0.045 0.135,0.048 0.174,0.22 0.374,0.357 0.272,0.184 0.627,0.194 0.853,0.408 0.363,0.334 0.446,0.911 0.829,1.344 -0.019,0.099 0.128,0.204 -0.077,0.299 0.327,0.349 0.305,1.324 -0.006,2.015 -0.182,0.517 -0.862,0.925 -0.881,1.297 -1.356,1.353 -3.903,2.458 -6.356,2.675 C 10.244,14.479 6.034,12.975 3.254,9.823 1.588,7.788 0.428,5.407 0.156,3.295 -0.08,2.217 0.264,1.058 0,0"
               style="fill:#630063;fill-opacity:1;fill-rule:evenodd;stroke:none"
               id="path44" /></g><g
             style="fill:#630063;fill-opacity:1"
             id="g46"
             transform="translate(426.1665,38.0283)"><path
               d="M 0,0 C -0.083,-0.04 -0.104,-0.101 -0.022,-0.176 -0.772,0.385 -1.605,0.965 -2.088,1.676 -2.233,1.884 -2.406,1.9 -2.539,2.019 -2.833,2.604 -3.262,2.8 -3.544,3.368 -5.121,5.36 -6.26,8.834 -5.492,12.084 c 0.742,2.824 2.526,5.048 3.434,7.139 0.305,0.537 0.749,1.322 1.125,2.059 0.44,0.327 1.386,1.144 1.991,0.996 0.243,-0.005 0.383,-0.106 0.67,-0.134 C 2.115,21.607 1.613,21.253 1.56,20.75 2.973,20.337 2.311,23.558 4.781,22.98 5.142,22.86 5.911,22.178 5.477,21.642 5.431,21.582 5.268,21.466 5.198,21.389 4.025,20.18 1.875,19.269 -0.3,17.865 -1.203,17.505 -1.643,16.583 -2.313,16.117 -2.787,15.636 -3.442,14.754 -3.906,14.19 -4.021,13.946 -4.021,13.673 -4.124,13.424 -4.772,12.019 -5.39,10.296 -5.095,8.201 -4.947,7.313 -4.775,6.342 -4.426,5.618 -4.122,4.981 -3.794,4.763 -3.641,4.181 -3.271,3.679 -2.823,3.249 -2.376,2.744 -2.196,2.535 -2.123,2.182 -1.911,1.99 -1.671,1.765 -1.367,1.657 -1.152,1.427 -0.811,0.997 -0.25,0.471 0,0"
               style="fill:#630063;fill-opacity:1;fill-rule:evenodd;stroke:none"
               id="path48" /></g><g
             style="fill:#630063;fill-opacity:1"
             id="g50"
             transform="translate(458.8052,67.4951)"><path
               d="m 0,0 c -0.097,0.149 -0.201,-0.075 -0.189,0.192 -1.122,-0.426 -2.636,0.116 -3.029,2.009 0.75,0.694 1.684,-0.611 2.627,-0.184 0.076,-0.178 0.138,-0.066 0.211,-0.18 0.32,0.26 0.832,0.278 0.732,0.712 C 0.413,2.64 0.495,2.433 0.561,2.461 1.244,3.821 1.773,5.2 1.42,7.199 L 1.717,7.405 C 2.461,6.496 2.166,5.928 2.2,5.264 2.217,4.81 2.329,4.179 2.131,3.88 2.086,3.811 2.17,3.366 2.146,3.237 2.046,2.75 1.783,2.499 1.92,1.852 1.599,1.877 1.897,1.417 1.635,1.399 1.666,1.167 1.54,1.06 1.623,0.787 1.405,0.633 1.275,0.41 1.322,0.052 0.992,-0.336 0.779,-0.81 0.697,-1.371 c -0.472,-0.326 -0.818,-0.537 -0.96,-1.212 -0.101,-0.056 -0.163,0.132 -0.249,0.164 -0.439,-0.67 -1.322,-0.739 -2.054,-1.087 -0.096,-0.095 -0.132,0.114 -0.2,0.162 -0.891,-0.095 -1.954,0.208 -2.342,1.822 -0.095,0.351 -0.005,0.666 -0.19,1.128 0.21,0.288 0.369,0.587 0.666,0.644 0.618,0.116 1.289,-0.939 1.86,-0.813 0.086,-0.346 0.531,0.007 0.75,-0.329 C -1.354,-0.671 -0.32,-0.792 0,0"
               style="fill:#630063;fill-opacity:1;fill-rule:evenodd;stroke:none"
               id="path52" /></g><g
             style="fill:#630063;fill-opacity:1"
             id="g54"
             transform="translate(443.3472,32.6182)"><path
               d="m 0,0 c 0.126,-0.39 -0.446,-0.344 -0.742,-0.426 -3.419,-0.916 -6.252,-1.338 -8.881,-1.661 -1.484,-0.325 -3.279,-0.241 -4.414,-0.92 -0.246,0.177 -0.186,-0.096 -0.418,0.058 -0.932,-0.534 -1.936,-0.773 -2.392,-2.133 0.034,-1.044 1.297,-2.265 2.362,-3.248 1.573,-0.383 2.713,-1.14 2.717,-1.768 -0.427,-0.104 -0.711,-0.322 -1.111,-0.455 -3.196,0.4 -4.793,2.371 -5.975,3.796 0.165,0.481 -0.506,1.071 -0.119,1.509 0.181,0.085 -0.274,0.256 -0.124,0.344 0.328,0.083 0.361,1 1.023,1.009 0.088,0.084 -0.284,0.217 -0.133,0.294 0.353,-0.212 0.366,0.133 0.507,0.27 0.013,0.161 0.281,-0.103 0.324,0.011 0.311,0.59 1.113,0.321 1.434,0.861 0.546,-0.143 0.952,0.038 1.274,0.316 0.956,-0.041 1.675,0.197 2.608,0.322 0.309,0.038 0.657,-0.054 0.973,-0.02 1.541,0.179 3.019,0.349 4.426,0.593 0.553,-0.092 0.906,0.129 1.506,0.119 C -3.626,-0.81 -1.585,-0.386 0,0"
               style="fill:#630063;fill-opacity:1;fill-rule:evenodd;stroke:none"
               id="path56" /></g><g
             style="fill:#630063;fill-opacity:1"
             id="g58"
             transform="translate(445.7739,33.2979)"><path
               d="m 0,0 c 0.053,-0.197 0.181,-0.16 0.151,-0.328 -1.237,-0.67 -2.441,-1.123 -3.711,-1.534 -0.737,-0.479 -1.685,-0.67 -2.48,-1.059 -0.392,-0.272 -0.832,-0.625 -1.299,-0.682 -0.166,-10e-4 -0.026,-0.161 -0.064,-0.229 -1.242,-0.422 -1.044,-1.506 -1.402,-2.446 -0.634,-0.166 -1.098,-0.448 -1.576,-0.732 -1.282,0.167 -1.375,0.852 -2.057,1.241 -0.43,-0.305 -0.032,-0.917 -0.363,-1.356 -0.353,-0.451 -1.698,-0.334 -2.732,0.248 -0.174,0.228 -0.114,0.48 -0.324,0.699 -0.01,0.86 0.706,0.881 1.209,1.375 0.512,0.163 1.142,0.324 1.513,0.648 1.541,0.293 3.036,0.801 4.722,1.216 0.087,0.012 0.061,0.085 0.073,0.139 2.239,0.325 3.946,1.331 5.902,1.694 C -1.703,-0.577 -0.966,-0.557 0,0"
               style="fill:#630063;fill-opacity:1;fill-rule:evenodd;stroke:none"
               id="path60" /></g><g
             style="fill:#630063;fill-opacity:1"
             id="g62"
             transform="translate(450.6714,35.5703)"><path
               d="m 0,0 c -0.643,-0.627 -1.29,-1.132 -2.418,-1.755 -0.028,0.058 -0.057,0.115 -0.132,0.076 -0.123,-0.092 0.152,-0.047 0.031,-0.192 -0.67,-0.514 -1.031,-0.825 -1.877,-1.311 -0.397,-0.498 -0.99,-0.752 -1.461,-1.14 -0.731,-0.637 -1.208,-1.283 -2.116,-1.783 -0.231,-0.648 -1.21,-1.018 -1.221,-1.689 -0.351,-0.031 -0.135,-0.26 -0.463,-0.301 -0.407,-1.12 0.252,-1.879 1.976,-1.897 l 0.097,-0.441 c -0.468,-0.422 -1.361,-0.524 -2.199,-0.511 -0.533,0.252 -0.8,0.405 -1.201,0.708 -0.264,0.762 -0.104,1.467 0.293,2.253 0.758,0.908 1.75,1.542 2.495,2.471 0.397,0.173 0.53,0.418 0.951,0.576 1.158,1.059 2.924,2.376 4.563,3.335 0.224,0.318 0.712,0.608 1.144,0.875 C -1.056,-0.37 -0.313,0.209 0,0"
               style="fill:#630063;fill-opacity:1;fill-rule:evenodd;stroke:none"
               id="path64" /></g><g
             style="fill:#630063;fill-opacity:1"
             id="g66"
             transform="translate(422.0571,40.1104)"><path
               d="m 0,0 c -0.662,-0.005 -1.362,1.201 -2.054,1.644 -0.663,1.162 -1.58,1.641 -2.119,2.924 L -4.351,4.544 C -4.879,5.509 -5.77,6.561 -6.478,6.716 -6.531,6.727 -6.593,6.893 -6.577,6.895 -6.861,6.872 -7.314,6.141 -7.653,5.82 -7.785,5.697 -7.975,5.916 -7.998,5.507 c -1.055,-0.33 -1.461,1.05 -2.281,1.412 0.006,0.213 -0.025,0.331 -0.105,0.316 0.346,1.671 0.975,3.051 1.922,2.43 -0.065,0.804 -0.659,0.7 -1.144,0.779 -0.704,-0.982 -1.32,-1.506 -2.288,-1.105 -0.259,0.58 -0.503,1.202 -0.709,1.905 0.157,0.935 -0.056,1.089 0.174,1.848 0.71,0.416 1.508,0.91 2.076,1.294 0.086,0.017 0.055,-0.113 0.019,-0.249 1.998,0.278 1.953,-2.484 3.462,-3.516 0.33,-1.666 1.237,-2.136 1.643,-3.611 l 0.226,0.004 C -4.785,6.142 -4.136,5.715 -3.781,4.704 -3.752,4.597 -3.66,4.653 -3.591,4.648 -2.709,2.853 -1.341,1.521 0,0"
               style="fill:#630063;fill-opacity:1;fill-rule:evenodd;stroke:none"
               id="path68" /></g><g
             style="fill:#630063;fill-opacity:1"
             id="g70"
             transform="translate(419.7017,47.3936)"><path
               d="m 0,0 c -0.354,0.61 -0.15,1.902 -0.624,2.435 -0.037,0.712 -0.222,0.988 -0.14,1.637 l -0.217,0.059 c 0.034,0.085 0.098,0.04 0.153,0.038 -0.201,1.496 -0.237,2.91 0.255,4.618 0.993,3.536 5.823,6.753 8.543,5.755 L 8.065,14.288 C 6.218,13.074 4.668,13.714 2.698,11.771 3.159,11.735 3.646,11.798 4.139,11.922 L 4.05,11.316 C 3.418,10.674 3.068,10.395 2.604,9.913 2.419,10.032 2.174,9.765 1.938,9.583 0.887,9.734 -0.094,7.565 -0.293,6.436 -0.442,6.085 -0.382,5.285 -0.369,4.747 -0.452,3.46 0.063,1.753 0.159,0.353 0.121,0.181 0.12,-0.007 0,0"
               style="fill:#630063;fill-opacity:1;fill-rule:evenodd;stroke:none"
               id="path72" /></g><g
             style="fill:#630063;fill-opacity:1"
             id="g74"
             transform="translate(466.4751,66.4316)"><path
               d="m 0,0 c 0.175,-1.417 0.098,-2.707 0.326,-4.448 -0.012,-0.788 -0.104,-1.476 0.018,-2.634 -0.092,-1.745 -0.525,-3.76 -0.775,-5.911 -0.12,0.026 -0.017,-0.37 -0.167,-0.286 -0.283,-2.311 -1.373,-5.229 -2.119,-8.073 -0.585,-2.426 -0.896,-4.258 -0.637,-5.789 -0.144,-1.129 -1.108,-2.979 -2.115,-3.521 -0.627,0.085 -0.606,0.665 -0.427,1.442 -0.677,-1.6 -1.293,-3.144 -1.258,-4.253 -0.431,-1.469 -2.284,-2.559 -2.925,-2.083 -0.064,0.046 0.052,0.289 -0.151,0.167 0.282,1.322 1.21,2.905 2.233,4.708 0.504,1.763 2.011,3.764 2.685,5.737 1.932,4.019 3.333,7.228 4.065,11.099 0.324,0.694 0.434,1.507 0.508,2.555 0.858,3.676 0.85,7.701 0.319,11.791 0.149,0.16 0.277,0.026 0.386,-0.405 0.012,1.938 -0.937,4.639 -1.472,6.8 0.524,-0.379 0.708,-1.375 0.929,-2.157 0.28,-0.924 0.622,-1.805 0.862,-2.74 0.193,-0.907 0.214,-1.921 0.676,-2.546 0.033,-0.138 -0.079,-0.118 -0.137,-0.155 0.365,-2.43 0.836,-4.079 1.759,-5.799 0.776,-1.451 1.554,-2.54 1.183,-5.494 -0.136,-0.181 -0.222,0.55 -0.226,-0.008 -0.222,0.24 -0.413,0.558 -0.706,0.601 -0.105,0.742 -0.419,0.92 -0.614,1.407 0.068,-1.98 0.412,-3.291 0.014,-5.589 -0.202,-0.63 -0.436,-1.171 -0.652,-2.038 -0.538,-0.438 -0.757,-1.862 -1.329,-2.268 -0.071,-0.539 -0.262,-0.422 -0.351,-0.85 l -0.351,0.084 c 0.204,1.159 0.163,2.895 0.491,4.034 -0.286,0.29 -0.521,0.772 -0.782,1.141 0.004,0.151 0.04,0.363 -0.027,0.384 -0.006,0.304 0.226,0.024 0.2,0.375 0.248,-0.262 0.366,0.039 0.486,-0.217 1.696,0.361 1.536,3.952 1.033,7.449 -0.244,2.423 -0.4,4.349 -0.856,6.548 C 0.156,-0.728 0.179,-0.471 0,0"
               style="fill:#630063;fill-opacity:1;fill-rule:evenodd;stroke:none"
               id="path76" /></g><g
             style="fill:#630063;fill-opacity:1"
             id="g78"
             transform="translate(415.3911,51.2607)"><path
               d="m 0,0 c -0.2,0.009 -0.422,0.143 -0.491,0.396 -0.012,0.041 0.09,0.228 0.083,0.277 -0.037,0.263 -0.283,0.504 -0.314,0.681 -0.007,0.047 0.097,0.243 0.086,0.285 -0.044,0.174 -0.218,0.183 -0.259,0.387 -0.134,0.676 0.078,1.767 -0.344,2.088 0.254,0.43 -0.145,0.209 0.144,0.627 L -1.26,4.813 c 0.326,1.138 -0.081,1.931 0.195,2.875 -0.117,0.033 -0.212,0.083 0.008,0.393 -0.172,0.329 -0.292,0.817 -0.128,1.326 -0.266,-0.055 -0.113,0.293 -0.113,0.368 -0.005,0.827 -0.795,0.265 -1.384,0.198 -0.871,-0.146 -1.392,0.399 -2.086,0.887 0.17,0.324 0.247,0.864 0.008,0.991 1.537,1.951 3.615,3.337 4.032,2.343 0.793,1.034 0.581,1.52 0.006,1.92 -0.426,-0.123 -0.887,-0.31 -1.179,-0.205 -1.122,-0.444 -2.789,-2.465 -3.657,-2.433 0.836,1.356 2.063,2.067 3.248,3.459 0.007,0.507 -0.343,0.988 0.605,1.789 1.331,0.579 1.936,0.06 3.022,0.276 C 1.646,18.603 1.995,18.001 2.248,17.726 2.188,17.503 1.938,17.209 2.201,17.107 1.736,16.213 1.607,15.443 1.615,14.738 0.824,13.383 0.804,12.182 0.163,10.602 L 0.304,10.489 C -0.963,7.034 -0.563,4.016 -0.194,0.915 0.055,0.874 -0.01,0.481 0.081,0.269 Z"
               style="fill:#630063;fill-opacity:1;fill-rule:evenodd;stroke:none"
               id="path80" /></g><g
             style="fill:#630063;fill-opacity:1"
             id="g82"
             transform="translate(439.021,68.4512)"><path
               d="M 0,0 C -0.179,-0.227 0.686,-0.474 0.957,-0.784 1.691,-1.65 1.55,-2.757 -0.382,-1.961 -0.98,-1.773 -1.09,-1.508 -1.848,-1.255 -2.991,0 -4.647,1.105 -7.488,1.316 -9.229,1.272 -11.136,0.985 -12.267,0.523 -12.511,0.428 -12.592,0.32 -12.778,0.221 c -2.992,-0.95 -4.093,-2.611 -5.941,-4.261 -0.172,-0.12 -0.173,0.083 -0.419,-0.174 -0.084,0.12 0.325,0.396 0.059,0.46 1.85,2.229 4.029,3.998 7.309,5.139 0.228,0.26 0.621,0.291 0.87,0.492 3.526,1.241 10.012,0.7 13.146,-1.92 1.41,-1.091 2.159,-1.748 2.971,-3.021 C 5.381,-3.302 5.248,-3.369 5.345,-3.645 5.466,-4.018 6.059,-4.726 6.134,-5.136 6.376,-6.327 5.948,-7.656 4.675,-7.332 3.012,-6.335 2.307,-4.751 2.142,-3.904 2.901,-2.909 2.559,-1.353 0,0"
               style="fill:#630063;fill-opacity:1;fill-rule:evenodd;stroke:none"
               id="path84" /></g><g
             style="fill:#630063;fill-opacity:1"
             id="g86"
             transform="translate(416.6743,62.7354)"><path
               d="m 0,0 c -0.583,0.171 0.248,1.405 0.743,2.071 l 0.062,0.291 c 0.062,0.126 0.345,0.365 0.403,0.462 0.151,0.26 0.146,0.463 0.333,0.752 0.469,0.732 1.213,1.581 1.948,2.23 0.351,0.348 0.689,0.618 1.167,1.069 0.288,0.271 0.253,0.433 0.911,0.801 0.002,0.234 0.864,0.595 0.651,0.798 1.118,0.36 1.844,1.056 2.903,1.529 -0.31,0.395 0.845,0.758 0.555,1.155 0.445,0.094 0.758,0.573 1.142,0.766 1.7,0.559 4.867,0.506 6.094,0.99 0.228,-0.02 0.452,-0.042 0.484,0.009 0.637,-0.053 1.126,-0.147 1.427,-0.271 -0.55,-0.358 -0.857,-0.807 -1.8,-1.011 3.572,-0.35 5.798,-0.995 8.928,-2.604 C 26.107,8.697 27.114,8.1 26.442,8.055 26.283,8.2 26.153,8.268 26.039,8.224 23.456,10.143 18.753,10.919 15.452,10.565 14.145,10.391 12.61,10.347 12.034,9.902 11.056,10.034 9.955,9.175 8.78,8.81 6.679,7.859 4.402,6.168 3.359,4.846 2.426,4.051 1.896,3.125 1.56,2.414 0.563,1.474 0.688,1.065 0.253,0.234 0.176,0.18 0.1,0.123 0,0"
               style="fill:#630063;fill-opacity:1;fill-rule:evenodd;stroke:none"
               id="path88" /></g><g
             style="fill:#630063;fill-opacity:1"
             id="g90"
             transform="translate(409.563,41.0381)"><path
               d="m 0,0 c 0.117,-0.344 0.007,-0.356 0.126,-0.697 -0.319,-0.292 -0.695,0.224 -0.787,-0.199 -0.182,0.261 -0.708,0.282 -0.7,-0.175 -0.598,-0.15 -1.116,-0.424 -1.109,-1.488 -0.906,0.073 0.476,-3.895 0.118,-4.634 -0.067,-0.116 0.01,-0.69 -0.06,-0.936 -0.059,-0.199 -0.314,0.053 -0.229,-0.571 L -3.33,-9.037 c -0.524,0.926 -0.55,1.692 -0.536,2.254 -0.53,1.708 -0.611,2.727 -0.701,4.049 0.231,-0.094 0.234,0.407 0.434,0.12 0.063,0.115 0.025,0.384 -0.038,0.695 -0.186,0.194 -0.361,0.539 -0.571,0.425 -0.949,0.888 -1.014,4.05 -1.902,4.359 -0.026,0.469 -0.136,0.523 -0.192,0.836 -0.004,0.37 0.108,0.437 0.088,0.858 0.29,0.041 0.664,-0.137 0.745,0.456 0.309,-0.28 0.587,-0.669 0.942,-0.772 0.554,-1.531 1.222,-3.81 2.109,-4.511 0.905,0.099 1.739,0.568 2.395,0.265 0.085,-0.026 0.061,0.109 0.032,0.251 C -0.359,0.087 -0.21,-0.193 0,0"
               style="fill:#630063;fill-opacity:1;fill-rule:evenodd;stroke:none"
               id="path92" /></g><g
             style="fill:#630063;fill-opacity:1"
             id="g94"
             transform="translate(469.3657,35.8389)"><path
               d="M 0,0 C 0.509,0.772 0.92,0.499 1.39,0.817 1.473,0.204 1.845,-0.101 1.834,-0.662 1.597,-1.188 1.54,-1.499 1.292,-1.965 0.629,-4.588 -1.916,-7.854 -4.013,-9.67 c -3.171,-2.852 -6.586,-4.147 -9.127,-4.925 -0.012,0.189 0.345,0.206 0.321,0.413 1.186,0.441 2.085,0.983 3.251,1.59 0.514,0.28 1.027,0.35 1.551,0.665 0.918,0.565 2.913,1.895 3.879,3.064 0.354,0.403 1.174,1.339 1.464,1.911 0.473,0.927 -0.036,1.277 0.279,2.28 C -1.951,-3.377 -1.013,-1.914 0,0"
               style="fill:#630063;fill-opacity:1;fill-rule:evenodd;stroke:none"
               id="path96" /></g><g
             style="fill:#630063;fill-opacity:1"
             id="g98"
             transform="translate(408.2407,47.4443)"><path
               d="M 0,0 C 0.014,-0.214 -0.045,-0.252 -0.025,-0.479 -0.139,-0.413 -0.263,-0.38 -0.271,-0.001 -0.179,0.091 -0.098,0.09 0,0 m 38.021,-11.208 c 0.322,-0.03 0.339,0.355 0.57,0.146 -0.164,-0.209 -0.409,-0.201 -0.57,-0.146 m 1.017,-0.956 c -2.508,-1.167 -4.67,-1.954 -7.89,-2.54 -0.002,0.025 -0.058,0.042 -0.065,-0.011 -0.192,-0.279 -1.425,-0.119 -1.914,-0.247 -0.169,-0.045 -0.323,-0.169 -0.448,-0.182 -0.543,-0.071 -1.401,-0.186 -1.875,-0.158 l -0.555,0.085 c -0.907,0.035 -1.747,-0.178 -2.723,0.156 -0.561,-0.17 -1.255,-0.042 -2.015,0.208 -0.758,0.011 -1.57,0.203 -2.407,0.482 -0.477,-0.118 -1.31,0.183 -1.863,0.264 -0.097,0.013 -0.28,0.146 -0.367,0.159 -0.547,0.088 -1.413,-0.086 -1.68,0.3 -1.105,-0.25 -2.515,0.49 -3.59,-0.004 -0.31,0.284 -0.491,-0.155 -0.8,0.101 -0.714,-0.493 -1.393,-0.424 -2.197,-1.199 -0.047,-0.558 -0.128,-0.816 -0.5,-1.15 0.167,-1.289 0.168,-2.36 1.078,-3.943 0.681,-0.831 1.977,-2.142 3.118,-2.783 0.231,0.079 0.688,-0.213 0.911,-0.125 -0.223,-0.221 -0.403,-0.536 -0.617,-0.664 0.589,-0.46 0.319,-0.596 -0.046,-0.473 1.031,-0.724 1.984,-1.18 2.431,-1.07 -0.102,0.321 0.02,0.6 -0.252,0.95 0.372,-0.029 0.574,0.164 0.981,0.085 1.051,-0.272 2.959,-1.177 3.522,-1.86 1.653,-0.781 1.398,-1.491 1.747,-2.168 -0.317,0.105 -0.157,-0.131 -0.402,-0.077 -0.646,0.924 -2.006,1.903 -4.072,2.922 -0.241,-0.296 -0.672,-0.405 -1.328,-0.235 0.201,-0.351 -0.805,-0.365 -0.269,-0.983 -0.524,0.199 -0.195,-0.44 -0.656,-0.406 -0.342,0.147 -0.415,0.221 -0.494,0.406 0.623,-0.01 0.28,0.363 0.437,0.737 -0.7,0.592 -1.174,0.563 -1.79,0.856 -0.962,0.895 -2.209,1.428 -3.071,1.906 -0.317,-0.06 -0.598,-0.194 -1.103,0.097 -4.404,4.232 -4.455,7.388 -4.605,10.052 0.247,0.447 0.116,1.551 0.705,1.469 0.041,-0.999 1.192,-3.796 2.11,-3.564 -0.141,1.044 -0.553,2.246 0.012,2.766 -0.925,1.916 0.453,1.967 0.888,2.348 0.156,-0.911 0.217,-1.862 0.308,-2.648 0.442,-0.91 0.758,-0.773 1.099,-0.878 0.55,0.718 0.267,1.771 0.389,2.884 l 0.685,0.345 c 0.095,0.077 0.18,-0.3 0.276,-0.162 2.435,0.06 4.837,-1.608 7.333,-2.075 0.111,-0.127 0.169,-0.043 0.288,-0.203 2.239,-0.542 4.365,-1.295 6.904,-1.787 3.677,-0.729 9.781,0.097 14.114,2.442 0.149,0.156 -0.124,0.122 0.127,0.291 0.158,0.085 0.177,-0.153 0.311,-0.127 1.237,0.585 2.862,1.642 4.206,2.386 5.431,3.799 9.086,9.978 11.313,16.029 l -0.021,0.438 c 0.515,0.762 0.624,2.229 0.997,3.048 -0.067,0.827 0.267,1.082 0.161,1.975 0.22,0.164 0.105,0.736 0.277,0.906 -0.094,1.781 0.176,3.036 0.089,4.658 -0.002,1.436 -0.251,3.021 -0.264,4.142 -0.322,1.461 -0.649,2.796 -0.9,4.009 -0.233,0.336 -0.108,0.419 -0.345,0.755 0.098,0.085 -0.068,0.357 -0.022,0.477 -0.295,0.534 -0.429,0.878 -0.466,1.19 -0.506,0.766 -0.451,1.2 -1.012,1.998 0.042,0.036 -0.01,0.282 -0.045,0.365 -0.382,0.965 -1.393,2.08 -1.569,2.877 0.492,-0.648 1.208,-1.716 1.734,-2.341 0.926,-2.025 2.08,-4.343 2.475,-6.321 0.204,-0.435 0.507,-1.006 0.349,-1.216 0.405,-1.664 0.868,-3.279 0.753,-4.643 0.17,-0.068 0.07,-0.34 0.202,-0.563 0.044,-2.026 0.223,-4.606 -0.18,-6.476 C 56.83,9.519 56.316,7.294 55.832,4.618 55.518,3.766 55.288,2.909 54.992,1.73 54.562,0.825 54.276,-0.292 53.8,-1.242 53.614,-1.64 53.421,-1.882 53.26,-2.252 52.957,-2.856 52.609,-3.575 52.258,-4.25 51.82,-5.005 51.259,-5.609 50.835,-6.374 c -0.701,-1.028 -1.323,-2.322 -2.339,-3.65 -2.026,-2.745 -4.606,-4.812 -6.58,-6.883 -0.747,-0.502 -0.849,-1.115 -1.596,-1.396 0.068,-0.081 0.057,-0.161 -0.077,-0.238 -2.293,-1.683 -4.218,-2.947 -5.231,-4.515 -0.126,0.23 -0.015,-0.188 -0.28,-0.072 -0.052,-0.164 0.321,0.019 0.319,-0.103 -0.206,-0.491 -0.28,-0.976 -0.623,-1.408 0.365,-0.089 -0.036,-0.275 0.1,-0.532 0.087,-0.283 0.695,-0.412 0.826,-0.915 0.908,-0.137 1.611,-0.439 2.506,-0.604 1.871,0.294 3.69,1.256 3.839,1.982 -0.344,-0.047 -0.049,0.007 -0.073,0.166 -0.301,-0.01 -0.66,-0.021 -1.023,-0.065 -2.075,-1.132 -4.107,-0.837 -4.583,-0.143 -0.717,1.025 0.293,2.255 0.979,3.103 0.385,0.061 0.522,0.43 0.75,0.4 -0.401,-0.939 -1.04,-1.631 -0.405,-2.547 0.666,-0.525 1.836,-0.432 3.238,-0.195 2.155,0.93 2.857,2.058 2.597,2.674 -0.603,0.211 -1.394,0.227 -1.648,0.592 -0.085,0.122 0.073,0.305 0.053,0.529 10e-4,-0.002 -0.202,-0.035 -0.211,-0.003 -0.111,0.441 0.544,1.027 0.489,1.451 1.173,0.74 -0.313,1.011 0.268,1.652 0.307,-0.01 0.196,-0.328 0.48,-0.444 0.692,0.467 1.014,1.242 1.812,1.568 -0.543,-0.556 -0.476,-1.045 -1.188,-1.552 -0.209,-0.592 0.218,-0.902 0.712,-1.098 1.35,0.116 2.531,1.49 2.973,2.442 0.1,0.242 0.143,0.33 0.192,0.488 0.046,0.138 0.228,0.349 0.249,0.415 0.022,0.067 -0.136,0.066 -0.122,0.132 0.032,0.142 0.235,0.344 0.278,0.504 0.093,0.354 -0.052,0.624 0.019,0.881 0.036,0.112 0.205,0.234 0.246,0.38 0.083,0.266 -0.027,0.232 0.037,0.45 0.077,0.255 0.217,0.585 0.324,0.772 1.402,2.457 3.494,4.961 4.731,7.752 1.464,3.422 3.119,6.222 3.582,9.74 0.059,0.004 0.068,0.118 0.14,0.091 0.19,1.335 0.347,2.635 0.694,3.679 -0.093,1.019 0.206,1.356 0.13,2.318 0.56,2.87 0.278,6.207 0.104,9.269 -0.774,3.299 -1.399,6.424 -3.128,9.683 0.049,0.067 0.246,0.045 0.016,0.281 -0.103,0.136 -0.142,0 -0.265,0.209 -0.66,1.323 -1.682,2.673 -2.787,3.911 -0.522,0.97 -2.305,2.315 -2.176,2.995 -0.714,0.913 -0.776,1.459 -1.231,2.223 0.027,0.065 0.135,0.107 0.021,0.212 -0.212,0.108 -0.124,0.301 -0.347,0.492 -0.505,0.293 -0.749,0.158 -1.113,0.222 -0.028,-0.085 0.165,-0.092 0.155,-0.173 -0.711,-0.245 -1.509,-0.183 -2.345,-0.453 -0.414,0.222 -0.733,0.309 -0.977,0.292 -1.846,0.778 -3.153,0.58 -4.533,0.82 -0.107,-0.216 -0.361,-0.257 -0.754,-0.133 -0.871,-0.394 -1.642,-0.826 -2.26,-1.405 -0.23,-0.499 -0.317,-0.873 -0.537,-1.291 0.25,-0.109 0.078,-0.502 -0.022,-0.763 0.62,-0.846 1.551,-1.686 2.723,-2.431 -0.027,0.218 0.342,-0.203 0.315,0.016 -0.16,0.693 -1.322,1.35 -1.102,1.785 0.09,0.177 0.074,0.002 0.015,0.243 -0.112,0.461 0.128,0.556 0.145,0.935 0.101,0.004 0.321,-0.143 0.316,-0.005 -0.404,0.22 0.11,-0.036 0.06,0.121 0.172,0.079 -0.264,0.168 -0.092,0.247 0.321,0.033 0.176,0.42 0.737,0.39 l 0.122,0.242 c 1.061,0.087 1.82,0.631 3.394,-0.139 0.691,-0.012 1.679,-0.229 2.805,-1.037 -0.101,-0.107 -0.022,-0.32 -0.125,-0.529 1.797,-1.573 3.078,-2.872 3.854,-4.454 -0.052,-0.544 0.515,-1.415 0.485,-2.02 -1.009,1.042 -2.168,0.078 -1.202,-1.228 0.394,-0.2 0.672,0.012 1.187,-0.59 0.144,-0.326 0.115,-0.576 0.058,-0.812 -0.89,0.376 -2.03,1.082 -2.393,0.113 0.977,-1.103 1.548,-1.58 2.375,-2.563 -0.253,-0.367 -0.626,0.006 -0.883,-0.322 -1.496,0.347 -3.268,0.96 -4.652,0.672 -0.335,-0.071 -0.533,-0.338 -0.965,-0.268 l -0.585,-0.564 c -0.071,-0.097 -0.216,0.195 -0.276,0.043 -0.515,-0.302 -0.747,-0.924 -1.006,-1.177 -0.126,-0.127 -0.017,0.092 -0.051,-0.147 -0.057,-0.372 -0.425,-0.614 -0.451,-0.992 -0.021,-0.266 0.273,-0.65 -0.006,-0.813 0.171,-0.988 0.762,-2.226 0.616,-3.168 0.154,-0.251 0.342,-0.392 0.469,-0.582 0.573,0.219 1.215,0.383 1.441,1.019 0.223,0.659 -0.455,2.403 0.245,2.805 0.237,-0.279 0.191,-0.685 0.333,-0.994 0.423,-0.893 0.902,-0.85 1.303,-0.925 -0.024,0.199 0.106,0.128 0.27,0.433 -1.337,1.977 -0.211,3.449 1.362,3.51 l 0.144,-0.198 c 0.801,0.235 1.656,0.172 2.551,-0.05 0.049,0.034 -0.055,0.146 -0.028,0.191 1.296,-0.262 1.72,0.962 2.237,1.983 -0.04,0.543 -0.084,1.094 0.125,1.51 -0.239,0.476 -0.142,0.769 -0.057,1.07 -0.448,1.225 -0.592,2.098 -1.441,3.538 0.111,0.584 -0.978,1.531 -0.323,1.863 1.419,-1.047 2.586,-2.857 3.468,-4.598 0.682,-1.418 1.111,-2.431 1.505,-3.699 -0.049,-0.051 -0.159,-0.057 -0.102,-0.182 0.408,-0.349 0.248,-1.143 0.754,-1.891 -0.084,-0.664 0.333,-1.886 0.202,-2.56 0.425,-1.739 0.113,-3.105 0.311,-4.815 -0.411,-0.293 -0.178,-1.353 -0.647,-1.642 -10e-4,-0.491 -0.151,-0.865 -0.303,-1.2 -0.392,-0.845 -0.73,-1.69 -1.395,-2.175 0.022,-0.143 -0.003,-0.221 -0.052,-0.268 l -0.266,-0.048 c 0.051,-0.313 -0.208,-0.213 -0.205,-0.46 -0.021,0.101 -0.043,0.193 -0.114,0.15 -0.932,-1.3 -2.451,-0.895 -3.716,-1.086 C 48.636,9.794 48.328,9.783 48.048,9.738 48.101,9.543 47.8,9.46 47.544,9.451 47.063,9.054 46.863,8.406 46.331,8.075 l -0.12,-0.41 C 45.323,6.931 45.396,5.411 44.805,4.391 44.884,3.588 44.437,2.757 44.746,2.105 44.543,0.768 45.397,0.129 45.72,-0.827 c 0.233,-0.048 0.378,-0.154 0.468,-0.301 0.33,0.168 0.627,-0.152 0.891,-0.186 0.795,-0.097 1.537,0.657 2.096,1.283 0.099,0.548 0.38,0.952 0.348,1.452 -0.166,0.166 -0.269,0.399 -0.31,0.699 -1.347,0.838 -1.766,-2.23 -2.917,-1.206 -0.097,0.187 -0.17,0.389 -0.393,0.468 -0.244,0.629 -0.582,1.173 -0.513,1.99 0.089,1.516 0.807,3.532 1.72,4.363 0.128,0.387 0.357,0.651 0.732,0.694 0.04,0.481 0.604,0.36 0.805,0.665 0.45,-0.039 0.92,0.032 1.502,0.03 0.066,0 0.094,0.171 0.156,0.173 0.304,0.01 0.909,-0.053 1.098,-0.026 0.247,0.354 0.674,0.484 1.091,0.627 1.159,1.222 2.138,2.808 2.77,4.623 -0.657,-7.23 -3.238,-14.008 -7.685,-18.169 -0.296,-0.007 -0.561,-0.323 -0.738,-0.412 -0.249,0.015 -0.131,0.25 -0.237,0.348 -1.048,0.723 -1.859,-0.36 -2.831,-0.184 -0.23,-0.214 -0.221,-0.417 -0.28,-0.668 0.162,-0.096 0.148,-0.261 0.163,-0.398 -0.612,-0.189 -1.054,0.372 -1.675,0.318 -0.165,-0.167 0.041,-0.265 0.088,-0.417 0.008,-0.022 -0.069,-0.152 -0.062,-0.167 0.028,-0.06 0.164,-0.077 0.214,-0.165 0.092,-0.165 0.084,-0.466 0.152,-0.567 0.209,-0.311 0.6,-0.413 0.809,-0.649 0.058,-0.046 0.12,0.127 0.179,0.097 l 0.212,-0.167 c 1.144,0.229 2.506,1.098 3.502,1.71 -1.138,-1.108 -2.661,-2.545 -4.108,-3.235 -0.324,-0.439 -0.452,-0.271 -0.745,-0.644 -1.63,-0.833 -3.404,-1.574 -4.891,-2.135 -3.412,-1.193 -7.576,-1.991 -10.28,-1.793 -0.801,0.019 -1.591,0.121 -2.396,0.294 -2.461,0.443 -5.041,1.364 -7.118,3.071 -0.047,-0.025 -0.095,-0.088 -0.142,-0.032 -0.542,0.528 -1.081,0.742 -1.436,1.327 -0.092,-0.068 -0.169,0.069 -0.256,0.076 -1.763,1.639 -3.378,3.39 -4.463,5.876 -0.591,1.06 -1.362,2.053 -1.655,3.296 C 9.43,1.451 9.164,1.62 9.143,2.153 8.439,3.442 8.296,4.522 8.094,6.153 7.784,7.109 7.696,8.024 8.027,9.307 c -0.124,0.477 -0.088,1.362 0.204,1.994 -0.106,0.032 -0.133,0.108 -0.123,0.207 1.149,4.266 3.911,9.059 10.115,11.916 1.307,0.399 2.174,0.919 3.542,0.967 4.364,1.21 9.812,-0.27 13.305,-2.963 0.527,-0.498 1.847,-1.625 2.464,-2.243 -0.196,-0.131 0.476,-0.668 0.708,-0.969 1.146,-1.793 1.876,-3.684 2.375,-5.514 -0.087,-0.016 -0.023,-0.166 -0.101,-0.192 0.452,-1.143 0.187,-1.346 0.153,-2.229 C 40.521,8.845 40.318,7.473 39.614,6.947 39.656,6.341 39.165,6.417 39.074,5.953 38.311,5.572 37.52,5.125 36.659,5.174 36.206,5.194 35.464,5.168 35.017,5.328 34.985,5.34 34.926,5.518 34.911,5.524 34.796,5.573 34.632,5.473 34.506,5.522 c -0.11,0.057 -0.286,0.332 -0.513,0.43 -0.164,0.08 -0.354,0.029 -0.454,0.084 -0.1,0.055 -0.154,0.255 -0.242,0.316 L 33.063,6.345 c -0.205,0.094 -0.306,0.296 -0.445,0.407 0.009,0.4 -0.255,0.643 -0.555,0.997 0.028,0.599 -0.262,1.156 -0.843,1.48 -0.541,0.086 -1.118,-0.089 -1.533,-0.674 -0.007,-0.24 0.034,-0.47 -0.104,-0.673 0.205,-1.578 1.673,-2.237 2.77,-3.126 0.371,-0.013 0.699,-0.092 0.899,-0.413 0.803,0.011 1.352,-0.56 2.14,-0.483 0.088,-0.168 0.155,-0.158 0.207,-0.214 1.127,-0.023 1.289,-0.061 2.299,0.006 0.105,0.028 0.054,0.305 0.2,0.267 l 0.406,0.008 c 0.105,0.204 0.275,0.308 0.514,0.295 0.227,0.241 0.427,0.543 0.754,0.629 0.086,0.342 0.204,0.638 0.48,0.658 0.941,1.984 1.691,4.35 0.781,7.561 0.108,0.038 0.03,0.241 0.079,0.329 -0.491,0.908 -0.081,1.131 -0.812,2.02 0.141,0.28 -0.76,1.212 -0.614,1.486 -1.699,2.761 -4.38,5.627 -8.423,7.029 -1.375,0.827 -4.343,1.341 -6.708,1.341 -3.701,-0.212 -8.381,-2.005 -10.578,-3.703 0.006,-0.056 0.076,-0.104 -0.048,-0.18 -1.658,-1.129 -2.638,-2.223 -3.338,-3.48 C 9.988,17.316 10.037,16.95 9.352,16.321 9.478,16.199 9.216,15.967 9.005,15.695 8.595,13.997 7.493,12.247 7.469,10.558 7.177,9.563 7.475,9.045 7.169,8.065 L 7.335,7.992 C 7.08,6.772 7.699,6.134 7.518,4.878 7.938,4.86 7.556,3.975 7.937,3.93 7.813,3.369 8.065,2.978 8.298,2.787 c 0.777,-2.847 2.241,-4.824 3.704,-7.47 0.158,0.126 0.172,-0.216 0.288,-0.226 0.398,-0.845 0.993,-1.105 1.438,-1.925 0.827,-0.701 1.627,-1.676 2.706,-2.364 1,-0.926 2.053,-1.455 3.098,-2.135 2.195,-0.856 4.74,-1.809 6.776,-1.978 0.409,0.004 0.788,0.08 1.153,0.053 0.872,-0.018 2.083,0.051 3.259,0.178 1.197,0.212 2.475,0.383 3.897,0.77 1.135,0.304 2.294,0.778 3.396,0.99 -0.389,-0.178 -0.782,-0.432 -1.391,-0.711 -7.85,-2.983 -14.557,-1.824 -20.277,2.117 0.051,0.088 0.313,0.101 0.138,0.268 -0.157,-0.049 -0.081,-0.183 -0.214,-0.242 -2.761,1.403 -5.502,3.617 -8.105,5.298 -0.814,0.121 -1.488,0.521 -2.275,0.713 -0.05,-0.185 -0.632,-0.029 -0.847,0.17 -0.059,-0.011 -0.015,-0.182 -0.06,-0.214 -0.668,0.537 -1.6,0.055 -2.223,0.869 -1.72,0.754 -3.356,5.007 -1.644,9.655 L 0.811,6.685 C 0.526,5.809 0.157,5.766 -0.102,5.039 0.073,5.562 -0.335,5.106 -0.237,5.467 0.46,8.235 0.386,10.151 1.046,12.117 0.941,12.106 0.769,11.658 0.693,11.827 -1.327,7.289 -1.82,3.657 -1.323,0.525 -2.981,1.643 -2.211,11.083 1.15,12.995 l 0.279,-0.149 c 0.633,1.187 0.382,1.18 0.048,1.411 0.348,0.863 -0.356,0.893 0.244,1.869 -0.375,0.06 0.173,0.786 -0.326,0.76 C 0.999,16.36 0.743,16.275 0.412,15.585 0.389,15.363 0.442,15.215 0.244,14.823 -0.481,13.469 -1.318,12.528 -1.94,11.274 -2.108,10.814 -2.139,10.456 -2.281,9.977 -2.584,8.948 -2.967,7.968 -3.183,6.991 -3.502,5.891 -3.305,4.358 -3.267,3.595 c 0.093,-1.291 0.1,-1.951 0.306,-2.616 0.004,-0.012 -0.031,-0.216 -0.02,-0.283 0.142,-1.032 0.705,-1.263 0.933,-2.363 0.482,-0.416 0.825,-1.086 1.266,-1.787 C 0.266,-4.118 1.12,-5.049 2.163,-5.172 4.255,-3.884 7.17,-4.978 9.642,-6.185 7.836,-5.63 5.786,-4.941 3.521,-5.91 3.532,-6.348 3.3,-6.211 3.029,-6.363 3.047,-6.813 2.872,-6.704 2.586,-6.818 2.402,-7.209 2.199,-7.576 1.841,-7.73 1.569,-8.731 0.932,-9.136 0.869,-10.315 0.399,-10.867 0.413,-12.19 0.456,-13.37 c 0.016,-1.102 0.085,-2.083 0.26,-2.997 0.062,-0.371 0.399,-0.979 0.532,-1.423 0.102,-0.342 0.046,-0.543 0.163,-0.871 0.082,-0.195 0.316,-0.437 0.443,-0.7 0.15,-0.31 0.157,-0.631 0.314,-0.968 0.608,-1.425 1.812,-3.108 2.845,-4.22 l 0.286,-0.52 c 1.07,-1.028 3.125,-3.183 4.723,-4.212 -0.09,-0.094 0.284,-0.315 0.393,-0.462 2.364,-1.314 4.577,-2.477 7.697,-3.494 0.922,-0.106 2.138,-0.401 3.561,-0.799 -0.082,0.378 0.886,0.079 1.35,0.115 0.304,0.016 0.344,0.126 0.605,0.131 0.325,0.008 0.718,-0.09 1.141,-0.081 1.037,-0.004 1.947,0.287 2.855,0.407 1.978,0.258 3.035,0.836 4.518,1.278 l 0.621,0.086 c 0.399,0.156 0.444,0.393 0.814,0.575 0.511,0.25 1.211,0.522 1.754,0.774 0.848,0.358 1.746,0.831 2.575,1.273 0.005,0.071 -0.082,0.15 0.072,0.206 0.366,0.103 0.481,0.233 0.898,0.334 1.826,1.391 3.957,2.829 6.911,4.774 0.277,0.247 0.241,0.439 0.629,0.706 0.096,-0.068 -0.123,-0.191 0.023,-0.251 1.056,0.401 2.437,1.027 3.465,2.167 0.042,0.346 0.858,1.194 0.191,1.181 -0.409,-0.093 -1.296,-0.581 -1.938,-0.928 1.255,1.509 3.273,3.509 4.908,5.782 0.831,1.129 1.592,2.471 2.442,3.723 0.956,1.327 2.613,3.617 3.41,4.381 0.72,0.715 1.359,1.242 2.006,1.13 0.085,0.361 0.192,0.102 0.284,0.262 0.453,1.191 1.113,1.415 1.335,2.36 -0.101,0.642 -0.823,0.89 -1.297,0.574 0.238,1.2 1.045,1.129 1.439,1.992 0.288,-0.408 0.712,0.54 0.885,-0.169 0.079,0.436 0.529,0.442 0.444,-0.084 1.005,0.434 1.823,-1.421 2.048,-3.117 0.086,-0.007 0.134,0.402 0.225,0.34 0.488,3.182 0.34,5.862 -0.21,7.638 -0.118,0.472 -1.108,0.488 -0.731,0.764 -0.3,0.195 -0.403,-0.42 -0.541,0.02 -0.225,-0.504 -0.85,10e-4 -0.89,-0.666 L 63.418,3.667 C 62.965,3.074 62.528,2.489 62.016,2.082 62.012,1.643 61.836,1.876 61.832,1.436 61.462,1.24 61.229,0.506 60.881,0.246 c -0.304,-1.04 -0.793,-1.572 -1.254,-2.359 -0.383,-1.035 -0.776,-1.856 -1.298,-2.568 -2.816,-6.273 -7.651,-12.941 -11.625,-17 -0.085,0.158 -0.132,-0.1 -0.323,-0.096 0.193,-0.116 -0.233,-0.489 -0.516,-0.801 0.178,-0.016 0.562,-0.124 0.382,-0.401 -0.113,0.151 -0.067,-0.031 -0.188,-0.117 -0.339,0.116 -0.067,0.251 -0.448,0.307 -0.613,-0.354 -0.564,-0.601 -0.867,-0.904 -1.932,-1.393 -2.963,-2.665 -4.916,-3.612 l 0.059,-0.171 c -1.939,-0.968 -2.905,-2.059 -5.145,-2.73 -1.313,-0.948 -3.299,-1.591 -5.359,-2.121 -0.422,-0.358 -1.464,-0.537 -2.293,-0.704 -3.082,-0.653 -8.367,-0.299 -12.423,1.713 -2.174,1.002 -4.887,2.584 -6.676,4.36 -1.682,1.587 -3.393,3.744 -4.387,5.293 -0.163,0.252 -0.124,0.391 -0.266,0.669 -0.161,0.313 -0.505,0.727 -0.663,1.043 -0.024,0.048 0.056,0.124 0.028,0.19 -0.461,0.997 -1.186,2.492 -1.312,3.318 -0.042,0.237 0.1,0.288 0.072,0.5 -0.034,0.292 -0.247,0.74 -0.276,1.043 -0.08,0.673 0.031,1.117 -0.116,1.813 0.052,1.776 0.767,3.244 1.276,4.413 0.526,0.25 0.663,1.298 1.407,1.476 -0.01,0.614 0.729,0.238 0.782,0.762 0.041,-0.183 0.105,-0.227 0.183,-0.169 0.678,0.744 1.379,0.483 2.207,0.287 -0.01,0.227 0.47,0.078 0.634,-0.116 l 0.39,0.114 c 0.107,0.059 0.12,-0.335 0.239,-0.215 l 0.259,0.079 c 0.466,-0.204 1.054,-0.475 1.51,-0.605 0.073,-0.022 0.327,0.208 0.339,-0.147 l 0.212,0.078 c 1.235,-0.882 2.512,-1.286 3.813,-2.294 1.012,-0.364 2.088,-1.191 3.202,-1.77 0.045,0.029 0.086,0.095 0.143,0.043 0.147,-0.229 0.556,-0.279 0.491,-0.443 -1.151,0.598 -2.345,0.794 -3.572,1.558 -0.772,0 -1.316,0.642 -2.136,0.582 -0.552,0.534 -1.079,0.23 -1.617,0.834 -0.481,0.031 -1.007,0.164 -1.456,0.503 C 9.081,-8.352 8.685,-8.004 8.353,-7.933 7.985,-7.854 7.668,-8.111 7.271,-7.72 6.405,-8.211 5.316,-7.945 4.498,-8.674 4.414,-8.751 4.364,-8.792 4.272,-8.982 4.202,-8.996 4.146,-8.73 4.072,-8.82 4.016,-9.414 3.854,-9.554 3.491,-9.74 3.328,-10.084 3.3,-10.584 2.927,-10.698 c -0.003,-0.261 -0.038,-0.764 -0.211,-0.466 0.143,-0.362 0.104,-0.818 -0.142,-0.448 0.281,-1.042 -0.351,-1.193 -0.016,-2.293 -0.907,-3.6 3.226,-12.694 12.51,-16.555 1.858,-0.826 4.513,-1.68 5.855,-1.805 0.541,-0.06 1.089,0.014 1.701,0.011 1.663,0.005 3.225,0.053 4.271,0.453 0.249,0.023 0.488,0.049 0.796,0.049 0.553,0.358 1.875,0.468 2.275,0.94 0.478,0.01 0.336,0.218 0.833,0.222 0.55,0.869 2.579,1.597 2.184,2.806 0.076,0.082 0.34,0.119 0.306,0.228 -0.181,0.519 0.065,1.299 -0.431,1.622 0.348,0.379 -0.258,0.4 -0.221,0.924 -1.616,1.205 -3.744,2.574 -8.158,2.501 -0.091,-0.256 -0.66,-0.083 -0.921,-0.188 -0.173,-0.345 -0.342,-0.382 -0.45,-0.581 0.267,-0.944 1.888,-1.651 4.007,-1.94 0.418,-0.3 1.017,-0.538 1.233,-0.921 -1.906,-0.145 -3.817,0.034 -3.777,-1.042 0.144,-0.096 0.384,-0.172 0.298,-0.32 1.45,-0.586 3.473,-0.693 3.773,-1.494 0.19,-0.483 -0.138,-0.869 -0.766,-1.276 -1.274,-1.266 -5.091,-1.347 -8.493,-0.877 -3.184,0.822 -5.904,1.711 -8.288,3.482 -1.833,1.361 -3.303,2.898 -4.809,4.582 -0.507,0.889 -1.04,1.83 -1.855,2.96 0.017,0.71 -0.861,2.042 -0.728,2.674 0.977,-1.274 0.611,-1.715 1.651,-2.926 -0.245,-0.023 0.29,-0.491 0.135,-0.565 2.593,-4.264 7.992,-8.462 12.535,-8.805 0.765,-0.067 1.562,-0.011 2.593,-0.058 0.228,0.349 0.464,0.507 0.987,0.718 0.106,0.199 0.131,0.677 0.512,0.52 -0.327,0.242 -0.08,0.253 0.097,0.393 -0.365,0.232 -0.235,0.514 -0.168,0.79 -0.21,0.245 -0.566,0.474 -0.519,0.744 -0.23,0.095 -0.458,0.241 -0.612,0.353 -0.165,0.124 -0.506,0.557 -0.526,0.57 -1.626,1.105 -4.402,2.416 -6.075,2.899 -0.312,-0.022 -0.501,-0.108 -0.795,0.04 0.302,0.554 0.238,1.158 -0.601,1.987 -0.152,0.159 -0.563,0.349 -0.71,0.509 -0.941,0.978 -1.627,1.751 -1.725,2.549 0.37,0.151 0.081,0.606 0.389,0.784 0.107,-0.103 0.17,-0.08 0.273,-0.17 0.464,-0.878 0.949,-1.725 2.011,-2.375 0.139,0.216 0.57,-0.115 0.617,0.264 0.063,0.345 -0.327,1.12 -0.248,1.537 -0.897,0.915 -0.47,1.779 -0.066,1.974 -0.164,0.304 0.224,0.49 0.42,0.409 -0.102,0.287 0.366,0.167 0.609,0.23 0.656,0.144 1.583,0.33 2.295,-0.097 -0.237,-0.339 -0.235,-0.395 -0.58,-0.69 0.199,-0.153 0.152,-0.265 0.318,-0.412 0.459,-0.191 0.869,-0.335 1.396,-0.658 0.715,0.008 1.463,0.326 1.846,0.66 l 0.23,0.387 1.288,0.366 c 3.933,-0.547 8.155,-0.306 12.85,0.863 0.122,0.202 0.652,0.135 1.042,0.294 1.479,0.516 2.926,0.992 3.973,1.63 0.503,0.34 1.255,0.459 1.879,0.924 1.326,0.829 2.54,1.442 3.529,2.339 1.724,1.506 3.424,3.021 4.765,5.177 -0.228,0.153 -0.47,-0.302 -0.645,-0.528 -0.68,-0.846 -1.331,-1.615 -2.071,-2.294 -1.283,-1.081 -2.701,-2.458 -4.289,-3.306 -1.071,-0.7 -1.822,-1.19 -2.909,-1.565 0.081,-0.09 -0.057,-0.173 -0.158,-0.258 -0.094,-0.025 -0.099,0.143 -0.208,0.083"
               style="fill:#630063;fill-opacity:1;fill-rule:evenodd;stroke:none"
               id="path100" /></g><g
             style="fill:#630063;fill-opacity:1"
             id="g102"
             transform="translate(445.856,65.0107)"><path
               d="M 0,0 C 0.487,-0.238 0.956,-1.214 1.201,-1.88 1.235,-1.976 1.101,-1.99 1.138,-2.088 1.189,-2.225 1.433,-2.473 1.477,-2.584 1.606,-2.963 1.731,-3.773 1.893,-4.425 1.783,-4.416 1.652,-4.171 1.685,-4.42 1.553,-4.44 2.012,-4.945 1.878,-4.964 2.187,-6.583 1.711,-7.976 1.223,-9.283 0.938,-9.395 0.641,-9.496 0.74,-10.024 c -0.255,0.466 -0.817,-0.386 -1.435,-0.392 -0.386,-0.013 -0.924,0.073 -1.266,0.133 -1.072,0.232 -1.924,0.649 -2.864,1.713 0.005,0.084 0.133,0.105 0.028,0.248 0.512,-0.013 1.012,-0.602 1.6,-0.446 -0.832,1.515 -1.326,2.882 -0.064,3.226 0.093,-0.177 0.464,-0.244 0.641,-0.148 0.641,-0.355 1.19,-0.679 1.672,-0.488 0.258,-0.21 0.877,0.05 1.141,0.349 0.164,0.185 0.094,0.565 0.168,0.827 0.183,0.701 0.283,0.966 0.182,1.71 -0.026,0.162 -0.04,0.24 -0.069,0.52 -0.02,0.171 -0.169,0.28 -0.256,0.53 -0.098,0.276 -0.056,0.579 -0.14,0.807 -0.267,0.832 -1.031,1.571 -1.38,2.194 l 0.23,0.278 C -0.939,0.921 -0.808,0.805 -0.757,0.83 -0.999,1.217 -0.415,0.779 -0.745,1.233 -1.006,1.231 -1.136,1.006 -1.471,1.136 -3.183,3.33 -6.542,5.277 -9.8,5.955 c -0.383,0.066 -0.954,0.291 -1.426,0.249 -0.031,-0.003 0.006,-0.183 -0.016,-0.18 -0.263,0.028 0.023,0.149 -0.115,0.193 -0.064,0.113 -2.93,0.187 -3.425,-0.01 -1.266,-0.228 -2.596,-0.385 -3.797,-0.998 -1.894,-0.781 -3.971,-1.63 -5.144,-2.845 -0.521,0.23 1.233,1.249 1.637,1.806 1.41,0.464 2.583,1.269 3.972,1.74 3.208,1.389 10.768,1.147 14.738,-2.148 0.016,-0.09 0.341,-0.237 0.139,-0.285 0.995,-0.41 1.763,-1.093 1.711,-1.595 C -1.345,1.798 -1.232,1.831 -0.952,1.584 -1.021,1.387 0.298,0.346 -0.188,0.343 0.141,0.124 0.145,0.114 0,0"
               style="fill:#630063;fill-opacity:1;fill-rule:evenodd;stroke:none"
               id="path104" /></g><g
             style="fill:#630063;fill-opacity:1"
             id="g106"
             transform="translate(450.1802,18.8574)"><path
               d="M 0,0 C 1.569,0.822 4.063,1.894 5.544,2.501 5.71,2.434 5.458,2.281 5.325,2.154 5.393,2.059 5.797,2.389 5.755,2.153 5.525,2.066 5.339,2.109 5.081,1.846 4.956,1.779 4.999,1.849 5.059,1.885 4.363,1.704 2.78,0.815 2.066,0.738 1.569,0.262 0.365,-0.2 0,0"
               style="fill:#630063;fill-opacity:1;fill-rule:evenodd;stroke:none"
               id="path108" /></g><g
             style="fill:#630063;fill-opacity:1"
             id="g110"
             transform="translate(452.5767,62.3105)"><path
               d="M 0,0 C -0.2,0.699 -0.597,2.13 0.141,2.232 0.449,1.652 0.839,1.286 1.229,0.999 1.291,0.944 1.508,0.91 1.569,0.839 1.597,0.808 1.607,0.664 1.638,0.642 2.033,0.359 2.398,0.355 2.808,0.172 2.919,0.121 2.99,-0.093 3.059,-0.124 c 0.24,-0.109 0.527,-0.084 0.826,-0.031 0.062,-0.436 0.601,0.134 0.73,-0.16 0.096,0.102 0.458,-0.022 0.334,0.266 C 5.15,-0.104 5.168,-0.166 5.25,0.048 5.359,0.087 5.322,0.011 5.346,-0.084 5.736,-0.051 5.73,0.329 6.152,0.338 6.327,0.925 7.09,0.997 7.143,1.716 l 0.253,0.09 c 0.882,1.608 1.566,3.297 1.515,5.622 l 0.16,0.083 C 8.902,8.413 9.356,8.734 8.864,9.804 9.029,11.406 8.158,13.531 7.04,15.685 6.827,16.552 5.509,17.931 5.384,18.767 5.956,18.641 7.084,16.375 7.55,15.571 8.07,14.537 8.669,13.737 8.566,13.27 9.49,11.566 9.356,10.218 9.667,8.804 9.591,7.978 9.459,7.066 9.473,6.131 L 9.309,6.055 C 9.402,5.241 9.314,4.607 9.014,4.116 8.662,1.949 7.719,0.645 6.81,-0.983 6.497,-1.114 6.262,-1.328 6.141,-1.655 5.574,-1.857 5.067,-2.12 4.677,-2.49 4.474,-2.252 4.317,-2.372 4.194,-2.604 4.069,-2.699 4.028,-2.527 3.965,-2.433 3.338,-2.605 2.628,-2.863 1.9,-2.731 1.892,-2.729 1.877,-2.61 1.867,-2.6 1.8,-2.522 1.697,-2.672 1.648,-2.656 1.563,-2.63 1.542,-2.475 1.454,-2.432 1.374,-2.392 1.266,-2.517 1.192,-2.502 1.183,-2.499 1.121,-2.33 1.103,-2.321 1.032,-2.286 0.91,-2.418 0.842,-2.394 l -0.567,0.241 c -0.194,0.072 -0.254,0.219 -0.369,0.285 -0.11,0.067 -0.344,0.05 -0.561,0.215 -0.722,0.535 -0.779,0.818 -1.295,1.469 C -2.232,0.104 -2.717,1.09 -2.556,1.735 -2.24,2.439 -1.285,2.364 -0.805,1.487 -0.543,1.01 -0.462,0.182 0,0"
               style="fill:#630063;fill-opacity:1;fill-rule:evenodd;stroke:none"
               id="path112" /></g><g
             style="fill:#630063;fill-opacity:1"
             id="g114"
             transform="translate(449.019,32.8574)"><path
               d="M 0,0 C 0.237,-0.069 0.244,-0.628 0.432,-0.848 0.109,-0.892 0.009,-0.535 -0.254,-0.478 -0.032,-0.313 0.095,-0.153 0,0 m -0.53,-0.012 c -0.005,0.116 -0.294,0.231 -0.033,0.351 0.062,-0.207 0.285,-0.248 0.54,-0.301 -0.246,-0.159 -0.29,0.06 -0.507,-0.05 M 13.927,20.287 C 13.881,19.554 13.691,19.072 13.452,18.748 12.575,15.7 11.011,13.563 9.292,10.716 8.281,9.492 7.127,7.979 6.197,6.761 5.964,6.622 5.739,6.407 5.521,6.142 4.896,5.354 4.207,4.972 4.011,4.699 3.191,3.719 1.489,2.359 0.293,1.345 0.009,1.136 -0.257,0.706 -0.499,0.805 -0.33,0.617 -0.542,0.666 -0.57,0.494 c -0.042,0.058 -0.073,0.14 -0.196,0.038 -0.695,-0.584 -0.922,-0.865 -1.711,-1.22 -0.081,-0.311 -0.621,-0.796 -1.096,-0.878 0.121,-0.187 -0.236,-0.22 -0.364,-0.328 -0.841,-0.762 -1.495,-1.513 -2.289,-2.219 0.046,-0.122 0.068,-0.238 -0.185,-0.283 0.047,-0.412 -0.233,-0.748 0.014,-1.209 0.191,-0.023 0.34,-0.083 0.332,-0.286 2.095,-0.419 3.796,1.763 2.812,2.422 0.545,0.585 0.725,1.436 1.705,1.932 -0.245,-0.572 -0.907,-1.214 -0.256,-1.737 0.955,0.019 2.417,0.868 2.311,1.676 0.111,0.199 0.292,0.111 0.421,0.103 -0.074,0.137 -0.135,0.297 -0.329,0.221 0.175,0.188 0.278,0.154 0.392,0.296 -0.112,0.178 0.127,0.372 -0.062,0.544 0.278,0.25 0.283,0.467 0.373,0.719 1.865,2.746 5.237,5.411 7.501,8.76 1.38,1.972 2.557,3.875 3.388,5.802 1.288,2.253 2.451,5.107 2.877,7.891 -0.625,-0.413 -0.653,-1.853 -1.141,-2.451"
               style="fill:#630063;fill-opacity:1;fill-rule:evenodd;stroke:none"
               id="path116" /></g><g
             style="fill:#630063;fill-opacity:1"
             id="g118"
             transform="translate(449.1362,81.1401)"><path
               d="M 0,0 C 0.097,-0.267 0.332,-0.557 0.203,-0.781 0.825,-2.36 3.647,-5.197 5.59,-6.597 6.23,-6.886 6.967,-7.103 7.398,-7.281 7.511,-7.788 6.934,-7.288 6.758,-7.549 6.208,-7.238 5.576,-6.866 4.983,-6.663 4.248,-6.02 3.38,-5.541 2.413,-4.808 1.33,-3.849 0.409,-2.891 -0.486,-2.013 -0.955,-1.35 -1.226,-0.77 -1.612,-0.196 -1.613,0.176 -1.43,0.535 -1.527,0.92 -0.496,1.816 0.884,2.441 3.211,0.894 3.712,-0.058 3.969,-0.824 3.132,-1.411 3.248,-2.602 1.149,-0.967 0,0"
               style="fill:#630063;fill-opacity:1;fill-rule:evenodd;stroke:none"
               id="path120" /></g><g
             style="fill:#630063;fill-opacity:1"
             id="g122"
             transform="translate(431.7114,65.2549)"><path
               d="m 0,0 c -0.219,-0.217 0.287,-0.383 0.477,-0.494 0.132,-0.733 0.301,-0.93 0.773,-1.527 -0.252,-0.044 -0.321,-0.287 -0.464,-0.43 -1.029,-0.18 -1.438,0.103 -2.091,0.234 -0.301,-0.169 -0.861,-0.443 -1.08,-0.623 -0.858,-0.043 -0.776,1.103 -1.09,1.495 -0.173,0.015 -0.191,0.184 -0.486,0.082 -1.037,0.986 -3.653,0.081 -5.585,-1.371 -2.227,-1.764 -3.052,-3.964 -3.728,-5.919 l -0.465,-2.693 c 0.156,-1.004 0.054,-2.061 0.39,-2.877 -0.249,-0.811 0.471,-1.509 0.319,-2.613 -0.448,0.008 -0.384,0.787 -0.531,1.059 -0.496,0.902 -0.311,2.156 -0.602,3.053 0.033,0.561 0.033,1.102 -0.179,1.439 0.283,1.906 0.422,3.724 1.358,5.62 1.395,2.886 4.999,5.79 8.221,6.461 0.631,0.161 1.445,0.382 2.068,0.45 0.493,-0.025 0.826,-0.241 1.723,-0.085 1.768,-0.07 2.967,-0.764 4.345,-1.379 1.13,-0.794 1.613,-2.006 1.86,-2.973 C 5.106,-3.427 5.131,-3.748 4.871,-4.015 4.373,-4.067 3.953,-3.798 3.353,-3.573 2.062,-2.67 1.581,-0.644 0,0"
               style="fill:#630063;fill-opacity:1;fill-rule:evenodd;stroke:none"
               id="path124" /></g><g
             style="fill:#630063;fill-opacity:1"
             id="g126"
             transform="translate(458.0269,84.7212)"><path
               d="m 0,0 c -0.173,0.17 -0.144,-0.084 -0.233,-0.091 0.075,0.24 -0.402,0.688 -0.357,0.942 0.581,-0.084 1.159,-0.93 1.749,-1.251 1.517,-1.697 3.865,-4.482 4.842,-6.573 1.439,-2.166 3.064,-4.459 4.29,-4.11 0.436,-0.223 1.413,-2.006 1.468,-3.111 0.015,-0.402 -0.257,-0.381 -0.141,-0.799 -0.531,-0.515 -1.098,0.315 -1.673,0.743 0.858,-1.573 1.779,-2.761 2.668,-3.639 0.562,0.028 0.525,0.754 1.126,0.739 0.253,-0.706 0.785,-0.994 0.813,-1.948 1.027,-0.428 1.628,-4.265 0.233,-3.534 -0.035,-2.496 -1.167,-0.041 -1.793,0.313 -2.132,3.879 -4.877,10.022 -7.525,14.7 -0.615,1.028 -1.073,2.32 -1.975,3.305 C 2.762,-2.771 1.167,-1.227 0,0"
               style="fill:#630063;fill-opacity:1;fill-rule:evenodd;stroke:none"
               id="path128" /></g><g
             style="fill:#630063;fill-opacity:1"
             id="g130"
             transform="translate(465.9497,36.3633)"><path
               d="M 0,0 C 0.085,0.696 0.779,1.746 1.236,2.349 1.387,2.291 1.587,2.288 1.687,2.141 1.826,1.938 1.934,1.038 1.914,0.512 1.911,0.448 1.75,0.116 1.743,-0.049 1.695,-0.59 1.637,-1.625 1.4,-2.414 1.349,-2.587 1.077,-3.093 1.048,-3.174 0.473,-4.615 -0.271,-6.84 -1.613,-8.421 c -0.829,-1.1 -2.051,-1.97 -2.883,-2.834 -1.833,-1.263 -4.5,-3.187 -6.01,-3.287 0.047,0.239 0.358,0.529 0.371,0.761 1.183,0.24 3.521,2.223 4.183,2.905 0.756,1.226 0.775,2.156 1.127,3.204 0.283,0.363 0.584,0.753 0.484,0.938 0.357,0.285 0.55,0.736 0.901,1.148 0.823,0.916 1.393,1.536 1.983,1.735 0.15,-0.195 0.367,-0.142 0.665,0.226 0.192,0.999 -0.117,1.731 -0.343,2.508 C -0.867,-0.434 -0.257,0.355 0,0"
               style="fill:#630063;fill-opacity:1;fill-rule:evenodd;stroke:none"
               id="path132" /></g><g
             style="fill:#630063;fill-opacity:1"
             id="g134"
             transform="translate(455.4585,22.2549)"><path
               d="M 0,0 C -0.123,-0.254 -0.563,-0.567 -0.252,-0.739 -1.243,-1.404 -2.89,-1.74 -3.745,-2.366 -3.96,-2.449 -4.218,-2.575 -4.233,-2.451 c -0.293,-0.372 -1.385,-0.612 -1.662,-1.034 -2.357,-0.819 -3.045,-1.838 -5.308,-2.374 -0.258,0.288 0.76,0.39 0.61,0.681 0.809,0.162 1.463,0.698 1.993,1.032 2.524,1.172 6.062,3.04 8.6,4.146"
               style="fill:#630063;fill-opacity:1;fill-rule:evenodd;stroke:none"
               id="path136" /></g><g
             style="fill:#630063;fill-opacity:1"
             id="g138"
             transform="translate(456.4351,19.9414)"><path
               d="M 0,0 C 0.142,0.097 0.276,-0.136 0.372,0.124 0.573,0.172 0.692,0.116 0.756,-0.009 0.646,-0.25 0.234,-0.125 0.342,-0.319 -0.044,-0.523 0.047,-0.145 -0.193,-0.172 -0.063,-0.101 -0.007,-0.045 0,0 m -1.743,0.266 c -0.513,-0.215 -1.075,-0.295 -1.207,-0.355 0.001,0 -0.75,-0.51 -1.177,-0.679 -2.598,-1.011 -5.387,-2.224 -7.63,-2.979 -0.38,-0.27 -1.48,-0.612 -2.174,-0.674 -0.317,-0.335 -1.561,-0.528 -1.948,-0.793 -2.972,-0.656 -4.514,-1.702 -8.453,-1.43 0.008,-0.143 -0.147,-0.312 0.083,-0.422 2.141,-0.084 4.358,0.02 5.854,0.41 0.688,0.185 1.625,0.385 2.204,0.564 0.521,0.156 1.051,0.272 1.395,0.403 1.573,0.494 4.083,1.169 5.69,1.274 0.316,0.358 0.852,0.104 1.441,0.167 1.228,0.193 2.38,0.438 3.186,0.464 2.853,0.991 3.401,2.315 2.338,2.385 -0.485,-0.155 -0.966,-0.301 -1.189,-0.184 0.791,0.363 1.316,0.458 2.133,0.861 0.575,-0.048 1.249,0.051 2.058,0.3 0.373,-0.552 1.404,-0.11 1.814,-0.618 0.37,0.21 0.391,0.362 0.679,0.437 C 4.228,1.174 2.272,1.908 0.005,0.958 L -0.243,0.646 c -0.209,0.251 -0.726,-0.001 -1.5,-0.38"
               style="fill:#630063;fill-opacity:1;fill-rule:evenodd;stroke:none"
               id="path140" /></g><g
             style="fill:#630063;fill-opacity:1"
             id="g142"
             transform="translate(278.687,86.8486)"><path
               d="m 0,0 c 0,0 68.955,0.625 135.492,0.937 8.282,-0.295 16.67,0.918 24.638,-1.02 7.902,-1.999 14.766,-6.952 19.14,-13.226 9.191,-12.537 8.053,-29.355 0.295,-38.196 -7.583,-9.256 -18.09,-10.563 -23.439,-9.724 -5.581,1.067 -7.22,2.715 -4.988,1.971 2.165,-0.538 7.882,-2.052 15.393,0.676 7.281,2.429 15.95,10.417 17.002,22.281 1.187,11.619 -5.274,25.849 -18.107,31.988 -6.311,3.405 -13.481,3.4 -21.3,3.276 l -23.14,0.1 C 59.284,-0.625 0,0 0,0"
               style="fill:#630063;fill-opacity:1;fill-rule:evenodd;stroke:none"
               id="path144" /></g><g
             style="fill:#630063;fill-opacity:1"
             id="g146"
             transform="translate(278.8237,86.8252)"><path
               d="M 0,0 7.836,2.19 8.743,0.661 14.485,-0.037 8.728,-0.706 7.789,-2.23 Z"
               style="fill:#630063;fill-opacity:1;fill-rule:evenodd;stroke:none"
               id="path148" /></g><g
             style="fill:#630063;fill-opacity:1"
             id="g150"
             transform="translate(278.8237,86.8252)"><path
               d="M 0,0 7.836,2.19 8.743,0.661 14.485,-0.037 8.728,-0.706 7.789,-2.23 Z"
               style="fill:#630063;fill-opacity:1;stroke:#3f0e73;stroke-width:0.25;stroke-linecap:butt;stroke-linejoin:miter;stroke-miterlimit:4;stroke-dasharray:none;stroke-opacity:1"
               id="path152" /></g></g></g><g
         style="fill:#630063;fill-opacity:1"
         id="g154"><g
           style="fill:#630063;fill-opacity:1"
           id="g156"
           clip-path="url(#clipPath160)"><g
             style="fill:#630063;fill-opacity:1"
             id="g162"
             transform="translate(30.1011,49.2314)"><path
               d="m 0,0 v -17.422 c 0,-0.724 0.596,-1.268 1.789,-1.629 1.003,-0.313 1.503,-0.756 1.503,-1.334 0,-1.199 -0.042,-1.866 -0.125,-1.996 -0.084,-0.134 -0.435,-0.197 -1.053,-0.197 h -9.489 c -0.476,0 -0.773,0.126 -0.892,0.382 -0.119,0.254 -0.179,0.883 -0.179,1.885 0,0.462 0.317,0.784 0.954,0.964 1.225,0.377 1.838,0.806 1.838,1.283 v 29.17 c 0,0.706 -0.096,1.236 -0.284,1.592 -0.188,0.354 -0.613,0.646 -1.273,0.876 -0.59,0.196 -0.985,0.411 -1.185,0.642 -0.199,0.23 -0.301,0.667 -0.301,1.306 0,1.152 0.44,1.728 1.319,1.728 H 2.521 L 14.565,-2.012 v 14.2 c 0,0.792 -0.586,1.351 -1.755,1.681 -0.69,0.213 -1.138,0.456 -1.34,0.728 -0.204,0.272 -0.305,0.803 -0.305,1.592 0,0.495 0.071,0.794 0.215,0.9 0.142,0.107 0.417,0.161 0.823,0.161 h 9.877 c 0.548,-0.049 0.823,-0.592 0.823,-1.63 0,-0.607 -0.054,-0.994 -0.162,-1.158 -0.106,-0.164 -0.351,-0.305 -0.733,-0.421 -0.834,-0.23 -1.36,-0.451 -1.574,-0.667 -0.215,-0.213 -0.322,-0.51 -0.322,-0.886 v -35.066 h -6.084 z"
               style="fill:#630063;fill-opacity:1;fill-rule:nonzero;stroke:none"
               id="path164" /></g><g
             style="fill:#630063;fill-opacity:1"
             id="g166"
             transform="translate(73.9038,47.3555)"><path
               d="M 0,0 C -2.697,-0.82 -4.308,-1.745 -4.832,-2.771 -5.356,-3.798 -5.62,-6.11 -5.62,-9.707 c 0,-2.645 0.215,-4.315 0.645,-5.013 0.429,-0.7 1.169,-1.049 2.219,-1.049 1.837,0 2.756,1.052 2.756,3.153 z m 0,3.21 v 4.761 c 0,1.318 -0.777,1.976 -2.326,1.976 -2.125,0 -3.186,-0.997 -3.186,-2.988 0,-1.117 -0.185,-1.915 -0.554,-2.392 C -6.438,4.088 -7.271,3.682 -8.571,3.345 -9.872,3.007 -11.261,2.84 -12.74,2.84 c -3.03,0 -4.545,1.118 -4.545,3.355 0,2.105 1.318,3.825 3.954,5.157 2.636,1.334 6.077,2 10.324,2 2.791,0 5.302,-0.265 7.533,-0.79 2.23,-0.526 4.013,-1.413 5.347,-2.664 1.334,-1.248 2.003,-2.622 2.008,-4.116 v -22.514 c 0.047,-0.116 0.405,-0.362 1.073,-0.739 0.477,-0.246 0.716,-0.609 0.716,-1.086 0,-0.659 -0.131,-1.123 -0.394,-1.394 -0.262,-0.272 -0.9,-0.524 -1.914,-0.751 -1.015,-0.231 -2.285,-0.346 -3.813,-0.346 -1.859,0 -3.411,0.234 -4.65,0.702 -1.242,0.47 -2.209,1.386 -2.899,2.753 -2.076,-1.481 -3.758,-2.428 -5.046,-2.841 -1.289,-0.409 -2.613,-0.614 -3.973,-0.614 -3.025,0 -5.368,0.818 -7.029,2.453 -1.66,1.635 -2.49,4.309 -2.49,8.023 0.002,3.716 0.778,6.292 2.327,7.73 1.549,1.438 4.579,2.765 9.087,3.98 C -4.259,1.894 -1.886,2.584 0,3.21"
               style="fill:#630063;fill-opacity:1;fill-rule:nonzero;stroke:none"
               id="path168" /></g><g
             style="fill:#630063;fill-opacity:1"
             id="g170"
             transform="translate(92.2979,56.9805)"><path
               d="m 0,0 h -1.396 c -0.406,0 -0.662,0.033 -0.77,0.1 -0.107,0.064 -0.16,0.246 -0.16,0.544 v 1.775 c 0,0.328 0.053,0.543 0.16,0.642 0.108,0.099 0.423,0.17 0.95,0.222 1.717,0.179 3.446,0.838 5.187,1.974 1.742,1.136 2.78,2.353 3.114,3.652 0.12,0.462 0.269,0.743 0.448,0.851 0.178,0.108 0.542,0.162 1.091,0.162 h 2.327 c 0.619,0 0.93,-0.29 0.93,-0.863 V 3.38 H 14.1 c 0.834,0 1.252,-0.272 1.252,-0.812 V 0.789 C 15.352,0.264 14.934,0 14.1,0 h -2.219 v -25.564 c 0,-0.875 0.56,-1.498 1.682,-1.877 0.548,-0.182 0.906,-0.403 1.074,-0.666 0.166,-0.265 0.249,-0.742 0.249,-1.431 0,-0.428 -0.042,-0.666 -0.125,-0.718 -0.083,-0.049 -0.376,-0.071 -0.877,-0.071 H 2.576 C 0.859,-29.276 0,-27.688 0,-25.564 Z"
               style="fill:#630063;fill-opacity:1;fill-rule:nonzero;stroke:none"
               id="path172" /></g><g
             style="fill:#630063;fill-opacity:1"
             id="g174"
             transform="translate(112.1592,56.5859)"><path
               d="m 0,0 c -0.311,0.1 -0.549,0.174 -0.716,0.222 -0.596,0.179 -0.972,0.359 -1.127,0.532 -0.155,0.171 -0.233,0.53 -0.233,1.073 0,0.294 -0.013,0.54 -0.036,0.74 0,0.493 0.102,0.818 0.305,0.975 0.203,0.156 0.65,0.232 1.341,0.232 h 11.13 c 0.549,0 0.882,-0.055 1.003,-0.171 0.119,-0.115 0.179,-0.394 0.179,-0.837 v -24.309 c 0,-2.123 0.846,-3.184 2.54,-3.184 1.288,0 2.266,0.379 2.935,1.135 v 22.827 c 0,0.593 -0.418,1.052 -1.252,1.382 -0.406,0.164 -0.651,0.341 -0.735,0.53 -0.083,0.191 -0.126,0.827 -0.126,1.913 0,0.476 0.406,0.714 1.218,0.714 h 11.702 c 0.501,0 0.806,-0.047 0.914,-0.148 0.106,-0.097 0.161,-0.361 0.161,-0.789 v -28.278 c 0,-0.545 0.321,-0.923 0.964,-1.136 0.789,-0.298 1.183,-0.789 1.183,-1.482 0,-0.987 -0.054,-1.546 -0.161,-1.676 -0.108,-0.134 -0.483,-0.198 -1.128,-0.198 H 19.182 c -0.692,0 -1.171,0.084 -1.432,0.259 -0.262,0.172 -0.393,0.546 -0.393,1.123 v 0.614 c 0,0.66 -0.013,1.032 -0.036,1.114 -3.793,-2.305 -7.003,-3.455 -9.628,-3.455 -2.254,0 -4.099,0.517 -5.537,1.552 C 0.718,-27.688 0,-25.69 0,-22.728 Z"
               style="fill:#630063;fill-opacity:1;fill-rule:nonzero;stroke:none"
               id="path176" /></g><g
             style="fill:#630063;fill-opacity:1"
             id="g178"
             transform="translate(158.9692,53.7969)"><path
               d="m 0,0 c 0.285,0.395 0.631,1.087 1.038,2.074 0.904,2.137 1.794,3.481 2.666,4.021 0.869,0.543 1.829,0.815 2.88,0.815 1.432,0 2.51,-0.469 3.239,-1.407 0.727,-0.938 1.09,-2.114 1.09,-3.529 0,-3.042 -1.24,-4.566 -3.721,-4.566 -1.241,0 -2.194,0.502 -2.863,1.508 -0.405,0.574 -0.822,0.863 -1.252,0.863 -1.074,0 -1.611,-0.814 -1.611,-2.445 v -19.715 c 0,-0.626 0.418,-1.088 1.253,-1.382 0.835,-0.282 1.253,-0.733 1.253,-1.359 v -1.109 c 0,-0.395 -0.068,-0.646 -0.198,-0.753 -0.13,-0.109 -0.507,-0.16 -1.127,-0.16 h -13.49 c -0.93,0 -1.396,0.302 -1.396,0.913 v 1.355 c 0,0.462 0.203,0.768 0.607,0.913 0.812,0.279 1.218,0.707 1.218,1.285 V 2.174 c 0,0.557 -0.287,0.961 -0.859,1.207 -0.622,0.248 -0.979,0.44 -1.074,0.579 -0.095,0.141 -0.143,0.564 -0.143,1.271 0,0.592 0.125,0.964 0.375,1.113 0.25,0.146 0.675,0.219 1.272,0.219 h 9.661 c 0.453,0 0.765,-0.084 0.93,-0.258 C -0.085,6.133 0,5.719 0,5.06 Z"
               style="fill:#630063;fill-opacity:1;fill-rule:nonzero;stroke:none"
               id="path180" /></g><g
             style="fill:#630063;fill-opacity:1"
             id="g182"
             transform="translate(190.7104,47.3555)"><path
               d="m 0,0 c -2.696,-0.82 -4.306,-1.745 -4.831,-2.771 -0.524,-1.027 -0.787,-3.339 -0.787,-6.936 0,-2.645 0.216,-4.315 0.643,-5.013 0.431,-0.7 1.168,-1.049 2.22,-1.049 1.836,0 2.755,1.052 2.755,3.153 z m 0,3.21 v 4.761 c 0,1.318 -0.774,1.976 -2.325,1.976 -2.124,0 -3.186,-0.997 -3.186,-2.988 0,-1.117 -0.184,-1.915 -0.554,-2.392 C -6.436,4.088 -7.271,3.682 -8.57,3.345 -9.872,3.007 -11.261,2.84 -12.739,2.84 c -3.031,0 -4.545,1.118 -4.545,3.355 0,2.105 1.317,3.825 3.953,5.157 2.637,1.334 6.079,2 10.326,2 2.791,0 5.301,-0.265 7.532,-0.79 C 6.758,12.036 8.54,11.149 9.874,9.898 11.207,8.65 11.877,7.276 11.882,5.782 v -22.514 c 0.047,-0.116 0.405,-0.362 1.074,-0.739 0.476,-0.246 0.715,-0.609 0.715,-1.086 0,-0.659 -0.132,-1.123 -0.394,-1.394 -0.262,-0.272 -0.901,-0.524 -1.915,-0.751 -1.014,-0.231 -2.284,-0.346 -3.811,-0.346 -1.86,0 -3.412,0.234 -4.652,0.702 -1.242,0.47 -2.207,1.386 -2.899,2.753 -2.075,-1.481 -3.757,-2.428 -5.046,-2.841 -1.288,-0.409 -2.612,-0.614 -3.972,-0.614 -3.025,0 -5.368,0.818 -7.028,2.453 -1.661,1.635 -2.491,4.309 -2.491,8.023 0.003,3.716 0.777,6.292 2.327,7.73 1.551,1.438 4.579,2.765 9.089,3.98 C -4.258,1.894 -1.885,2.584 0,3.21"
               style="fill:#630063;fill-opacity:1;fill-rule:nonzero;stroke:none"
               id="path184" /></g><g
             style="fill:#630063;fill-opacity:1"
             id="g186"
             transform="translate(226.6401,53.2793)"><path
               d="m 0,0 c 0,1.02 -0.298,1.781 -0.895,2.283 -0.596,0.5 -1.252,0.751 -1.968,0.751 -0.525,0 -1.098,-0.212 -1.717,-0.64 C -5.201,1.966 -5.511,1.481 -5.511,0.938 V -19.79 c 0,-0.446 0.334,-0.915 1.003,-1.408 0.666,-0.494 1.444,-0.74 2.324,-0.74 1.456,0 2.184,0.782 2.184,2.342 z m -5.511,4.664 c 1.407,0.921 2.697,1.613 3.865,2.074 1.168,0.459 2.552,0.69 4.151,0.69 3.668,0 6.356,-1.313 8.066,-3.935 1.708,-2.625 2.562,-6.825 2.562,-12.6 0,-3.749 -0.276,-6.836 -0.826,-9.253 -0.552,-2.419 -1.781,-4.401 -3.687,-5.946 -1.905,-1.548 -4.098,-2.32 -6.579,-2.32 -2.984,0 -5.501,1.133 -7.552,3.403 v -5.503 c 0,-0.558 0.451,-0.945 1.361,-1.16 0.881,-0.213 1.324,-0.616 1.324,-1.208 v -0.889 c 0,-0.343 -0.061,-0.553 -0.18,-0.628 -0.12,-0.075 -0.441,-0.113 -0.966,-0.113 h -13.777 c -0.955,0 -1.432,0.167 -1.432,0.495 v 0.913 c 0,0.609 0.406,1.079 1.216,1.407 0.405,0.164 0.61,0.428 0.61,0.789 V 2.813 c 0,0.609 -0.311,1.07 -0.932,1.382 -0.429,0.213 -0.686,0.377 -0.769,0.493 -0.084,0.116 -0.125,0.354 -0.125,0.717 v 0.764 c 0,0.443 0.064,0.707 0.197,0.79 0.13,0.082 0.483,0.122 1.055,0.122 h 10.915 c 0.691,0 1.115,-0.056 1.271,-0.172 0.154,-0.114 0.232,-0.412 0.232,-0.888 z"
               style="fill:#630063;fill-opacity:1;fill-rule:nonzero;stroke:none"
               id="path188" /></g><g
             style="fill:#630063;fill-opacity:1"
             id="g190"
             transform="translate(255.9126,53.7969)"><path
               d="m 0,0 c 0.287,0.395 0.634,1.087 1.041,2.074 0.903,2.137 1.792,3.481 2.664,4.021 0.869,0.543 1.832,0.815 2.88,0.815 1.432,0 2.514,-0.469 3.239,-1.407 0.73,-0.938 1.094,-2.114 1.094,-3.529 0,-3.042 -1.241,-4.566 -3.724,-4.566 -1.242,0 -2.196,0.502 -2.863,1.508 -0.404,0.574 -0.823,0.863 -1.253,0.863 -1.072,0 -1.61,-0.814 -1.61,-2.445 v -19.715 c 0,-0.626 0.419,-1.088 1.252,-1.382 0.835,-0.282 1.253,-0.733 1.253,-1.359 v -1.109 c 0,-0.395 -0.065,-0.646 -0.197,-0.753 -0.132,-0.109 -0.505,-0.16 -1.126,-0.16 h -13.493 c -0.93,0 -1.395,0.302 -1.395,0.913 v 1.355 c 0,0.462 0.203,0.768 0.608,0.913 0.81,0.279 1.218,0.707 1.218,1.285 V 2.174 c 0,0.557 -0.287,0.961 -0.859,1.207 -0.621,0.248 -0.98,0.44 -1.074,0.579 -0.094,0.141 -0.143,0.564 -0.143,1.271 0,0.592 0.125,0.964 0.377,1.113 0.249,0.146 0.673,0.219 1.268,0.219 h 9.664 c 0.454,0 0.764,-0.084 0.932,-0.258 C -0.08,6.133 0,5.719 0,5.06 Z"
               style="fill:#630063;fill-opacity:1;fill-rule:nonzero;stroke:none"
               id="path192" /></g><g
             style="fill:#630063;fill-opacity:1"
             id="g194"
             transform="translate(287.6558,47.3555)"><path
               d="m 0,0 c -2.696,-0.82 -4.306,-1.745 -4.83,-2.771 -0.526,-1.027 -0.786,-3.339 -0.786,-6.936 0,-2.645 0.213,-4.315 0.642,-5.013 0.431,-0.7 1.169,-1.049 2.221,-1.049 1.834,0 2.753,1.052 2.753,3.153 z m 0,3.21 v 4.761 c 0,1.318 -0.774,1.976 -2.327,1.976 -2.122,0 -3.185,-0.997 -3.185,-2.988 0,-1.117 -0.183,-1.915 -0.554,-2.392 C -6.437,4.088 -7.27,3.682 -8.569,3.345 -9.869,3.007 -11.263,2.84 -12.74,2.84 c -3.03,0 -4.542,1.118 -4.542,3.355 0,2.105 1.314,3.825 3.953,5.157 2.634,1.334 6.078,2 10.323,2 2.793,0 5.303,-0.265 7.534,-0.79 C 6.76,12.036 8.539,11.149 9.875,9.898 11.209,8.65 11.877,7.276 11.881,5.782 v -22.514 c 0.05,-0.116 0.407,-0.362 1.073,-0.739 0.478,-0.246 0.718,-0.609 0.718,-1.086 0,-0.659 -0.132,-1.123 -0.396,-1.394 -0.262,-0.272 -0.9,-0.524 -1.912,-0.751 -1.016,-0.231 -2.286,-0.346 -3.814,-0.346 -1.859,0 -3.41,0.234 -4.651,0.702 -1.242,0.47 -2.208,1.386 -2.899,2.753 -2.075,-1.481 -3.759,-2.428 -5.047,-2.841 -1.287,-0.409 -2.611,-0.614 -3.973,-0.614 -3.022,0 -5.365,0.818 -7.025,2.453 -1.661,1.635 -2.492,4.309 -2.492,8.023 0,3.716 0.777,6.292 2.328,7.73 1.548,1.438 4.579,2.765 9.087,3.98 C -4.26,1.894 -1.885,2.584 0,3.21"
               style="fill:#630063;fill-opacity:1;fill-rule:nonzero;stroke:none"
               id="path196" /></g><g
             style="fill:#630063;fill-opacity:1"
             id="g198"
             transform="translate(320.6909,51.0137)"><path
               d="M 0,0 2.247,3.126 C 2.271,3.158 2.394,3.309 2.619,3.577 3.565,4.708 4.04,5.479 4.04,5.895 4.04,6.123 3.755,6.346 3.181,6.559 2.871,6.674 2.668,6.815 2.573,6.979 2.476,7.143 2.43,7.604 2.43,8.36 c 0,0.477 0.061,0.761 0.176,0.852 0.121,0.092 0.491,0.135 1.11,0.135 h 6.979 c 0.358,-0.031 0.576,-0.118 0.645,-0.259 0.073,-0.141 0.109,-0.523 0.109,-1.149 0,-0.707 -0.03,-1.116 -0.09,-1.232 C 11.299,6.592 11.042,6.469 10.583,6.339 10.031,6.156 9.576,5.813 9.217,5.305 L 2.25,-4.619 9.802,-20.118 c 0.166,-0.328 0.574,-0.69 1.218,-1.085 0.5,-0.297 0.751,-0.651 0.751,-1.061 v -1.284 c 0,-0.379 -0.066,-0.607 -0.199,-0.689 -0.131,-0.085 -0.507,-0.123 -1.128,-0.123 H -2.402 c -0.619,0 -1.03,0.068 -1.233,0.208 -0.205,0.14 -0.307,0.506 -0.307,1.098 0,0.659 0.066,1.093 0.198,1.308 0.133,0.213 0.464,0.413 0.989,0.592 0.431,0.133 0.645,0.331 0.645,0.592 0,0.182 -0.059,0.387 -0.178,0.621 l -2.542,5.233 -2.521,-3.236 c -1.06,-1.352 -1.592,-2.226 -1.592,-2.62 0,-0.344 0.295,-0.582 0.893,-0.712 0.52,-0.15 0.779,-0.437 0.779,-0.865 l 0.039,-0.79 c 0,-0.724 -0.054,-1.142 -0.163,-1.257 -0.104,-0.117 -0.434,-0.172 -0.981,-0.172 h -6.943 c -0.455,0 -0.735,0.038 -0.843,0.123 -0.105,0.082 -0.158,0.31 -0.158,0.689 v 1.508 c 0.046,0.246 0.298,0.466 0.748,0.665 0.838,0.329 1.431,0.746 1.791,1.257 l 6.774,9.89 -7.327,15.09 c -0.261,0.556 -0.71,0.992 -1.352,1.302 -0.379,0.197 -0.638,0.372 -0.783,0.52 -0.138,0.146 -0.214,0.763 -0.214,1.851 0,0.361 0.076,0.586 0.218,0.677 0.141,0.092 0.462,0.135 0.962,0.135 h 13.176 c 0.595,0 0.95,-0.04 1.071,-0.122 0.12,-0.083 0.177,-0.355 0.177,-0.816 V 7.496 c 0,-0.442 -0.213,-0.773 -0.644,-0.986 -0.568,-0.28 -0.855,-0.633 -0.855,-1.062 0,-0.096 0.023,-0.197 0.069,-0.297 z"
               style="fill:#630063;fill-opacity:1;fill-rule:nonzero;stroke:none"
               id="path200" /></g><g
             style="fill:#630063;fill-opacity:1"
             id="g202"
             transform="translate(345.6304,67.3711)"><path
               d="m 0,0 c 2.696,0 4.042,-0.626 4.042,-1.877 0,-0.986 -0.899,-1.821 -2.702,-2.506 -1.799,-0.681 -3.847,-1.022 -6.136,-1.022 -2.96,0 -4.439,0.681 -4.439,2.048 0,1.086 1.041,1.917 3.117,2.493 C -4.045,-0.289 -2.002,0 0,0 m -10.021,-9.453 v 1.631 c 0,0.54 0.476,0.811 1.432,0.811 H 2.827 c 0.81,0 1.215,-0.271 1.215,-0.811 v -28.382 c 0,-0.395 0.036,-0.649 0.107,-0.764 0.072,-0.115 0.28,-0.222 0.634,-0.321 0.84,-0.231 1.263,-0.74 1.263,-1.529 0,-0.906 -0.056,-1.449 -0.177,-1.631 -0.12,-0.18 -0.5,-0.269 -1.145,-0.269 H -9.131 c -0.33,0.03 -0.545,0.136 -0.64,0.308 -0.095,0.172 -0.143,0.628 -0.143,1.368 0,0.891 0.31,1.408 0.933,1.556 0.763,0.182 1.143,0.51 1.143,0.987 v 24.603 c 0,0.955 -0.513,1.531 -1.541,1.728 -0.425,0.082 -0.642,0.32 -0.642,0.715"
               style="fill:#630063;fill-opacity:1;fill-rule:nonzero;stroke:none"
               id="path204" /></g><g
             style="fill:#630063;fill-opacity:1"
             id="g206"
             transform="translate(373.4731,59.7949)"><path
               d="m 0,0 1.966,-6.836 c 0.049,-0.216 0.072,-0.402 0.072,-0.567 0,-0.461 -0.645,-0.692 -1.933,-0.692 -0.858,0 -1.487,0.074 -1.878,0.223 -0.395,0.146 -0.841,0.542 -1.343,1.184 -0.574,0.756 -1.444,1.654 -2.61,2.689 -1.171,1.036 -2.219,1.557 -3.15,1.557 -0.355,0 -0.677,-0.117 -0.951,-0.347 -0.272,-0.232 -0.409,-0.503 -0.409,-0.813 0,-0.84 1.74,-3.213 5.222,-7.127 3.007,-3.403 5.05,-6.073 6.118,-8.013 1.078,-1.941 1.616,-4.127 1.616,-6.56 0,-2.58 -0.815,-4.591 -2.438,-6.03 -1.62,-1.438 -3.53,-2.155 -5.726,-2.155 -1.381,0 -2.834,0.345 -4.363,1.035 -0.835,0.38 -1.396,0.568 -1.681,0.568 -0.338,0 -0.528,-0.188 -0.574,-0.568 -0.097,-0.444 -0.241,-0.728 -0.431,-0.852 -0.19,-0.122 -0.81,-0.183 -1.858,-0.183 -0.815,0 -1.337,0.082 -1.574,0.246 -0.241,0.163 -0.407,0.454 -0.502,0.863 l -1.791,6.885 c -0.07,0.33 -0.106,0.536 -0.106,0.617 0,0.459 0.801,0.689 2.399,0.689 0.834,0 1.41,-0.071 1.733,-0.219 0.324,-0.149 0.733,-0.577 1.233,-1.284 1.863,-2.681 3.629,-4.023 5.301,-4.023 1.071,0 1.609,0.444 1.609,1.331 0,0.789 -0.4,1.769 -1.199,2.935 -0.797,1.167 -2.358,3.081 -4.67,5.744 -2.433,2.829 -4.194,5.195 -5.28,7.102 -1.087,1.908 -1.625,3.823 -1.625,5.747 0,2.611 0.81,4.559 2.431,5.844 1.623,1.281 3.589,1.922 5.907,1.922 1.213,0 2.598,-0.287 4.149,-0.864 0.787,-0.294 1.322,-0.444 1.609,-0.444 0.383,0 0.611,0.172 0.68,0.518 0.097,0.362 0.287,0.585 0.573,0.667 0.288,0.082 0.893,0.123 1.827,0.123 0.596,0 0.983,-0.047 1.163,-0.136 C -0.307,0.687 -0.144,0.428 0,0"
               style="fill:#630063;fill-opacity:1;fill-rule:nonzero;stroke:none"
               id="path208" /></g></g></g></g></g></svg>